<?xml version="1.0" encoding="UTF-8" standalone="no"?>
<svg
   xmlns:dc="http://purl.org/dc/elements/1.1/"
   xmlns:cc="http://creativecommons.org/ns#"
   xmlns:rdf="http://www.w3.org/1999/02/22-rdf-syntax-ns#"
   xmlns:svg="http://www.w3.org/2000/svg"
   xmlns="http://www.w3.org/2000/svg"
   xmlns:sodipodi="http://sodipodi.sourceforge.net/DTD/sodipodi-0.dtd"
   xmlns:inkscape="http://www.inkscape.org/namespaces/inkscape"
   version="1.1"
   id="Layer_1"
   width="637px"
   height="106px"
   xml:space="preserve"
   sodipodi:docname="shape6.svg"
   inkscape:version="0.92.4 (5da689c313, 2019-01-14)"><metadata
   id="metadata4033"><rdf:RDF><cc:Work
       rdf:about=""><dc:format>image/svg+xml</dc:format><dc:type
         rdf:resource="http://purl.org/dc/dcmitype/StillImage" /></cc:Work></rdf:RDF></metadata><defs
   id="defs4031" /><sodipodi:namedview
   pagecolor="#ffffff"
   bordercolor="#666666"
   borderopacity="1"
   objecttolerance="10"
   gridtolerance="10"
   guidetolerance="10"
   inkscape:pageopacity="0"
   inkscape:pageshadow="2"
   inkscape:window-width="1920"
   inkscape:window-height="1017"
   id="namedview4029"
   showgrid="false"
   inkscape:snap-grids="true"
   inkscape:snap-page="false"
   inkscape:zoom="2.7708006"
   inkscape:cx="318.5"
   inkscape:cy="-4.7450425"
   inkscape:window-x="-8"
   inkscape:window-y="-8"
   inkscape:window-maximized="1"
   inkscape:current-layer="Layer_1" />
<g
   id="1"
   transform="translate(187.84363,-106.69547)">
<path
   style="fill:#070201;fill-opacity:1"
   d="m 234.9,112.5 h 177.95 q 13.35,0.3 22.9,9.9 9.45,9.45 9.9,22.65 v 32.55 q -0.45,13.15 -9.9,22.6 -9.55,9.6 -22.9,9.9 H 234.9 v -97.6"
   id="path3988"
   inkscape:connector-curvature="0" />
<radialGradient
   id="RadialGradID_3"
   gradientUnits="userSpaceOnUse"
   gradientTransform="matrix(-0.0326691,0.121948,-0.16507,-0.0442352,142.45,180.85)"
   spreadMethod="pad"
   cx="0"
   cy="0"
   r="819.20001"
   fx="0"
   fy="0">
<stop
   offset="0"
   style="stop-color:#F5DA4A;stop-opacity:1"
   id="stop3990" />
<stop
   offset="1"
   style="stop-color:#E0A819;stop-opacity:1"
   id="stop3992" />
</radialGradient>
<path
   style="fill:url(#RadialGradID_3)"
   d="m 234.9,112.5 v 97.6 h -383.55 q -13.95,0 -23.85,-9.9 -9.45,-9.45 -9.9,-22.65 v -32.5 q 0.45,-13.2 9.9,-22.65 9.9,-9.9 23.85,-9.9 H 234.9"
   id="path3995"
   inkscape:connector-curvature="0" />
<path
   style="fill:none;stroke:#000000;stroke-width:8;stroke-linecap:round;stroke-linejoin:round;stroke-miterlimit:3;stroke-opacity:1"
   d="m 234.9,210.1 h 177.95 q 13.35,-0.3 22.9,-9.9 9.45,-9.45 9.9,-22.6 v -32.55 q -0.45,-13.2 -9.9,-22.65 -9.55,-9.6 -22.9,-9.9 H 234.9 m 0,97.6 h -383.55 q -13.95,0 -23.85,-9.9 -9.45,-9.45 -9.9,-22.65 v -32.5 q 0.45,-13.2 9.9,-22.65 9.9,-9.9 23.85,-9.9 H 234.9"
   id="path3997"
   inkscape:connector-curvature="0" />
<path
   style="fill:#000000;fill-opacity:1"
   d="m -12.55,166.4 v -4.2 q 1.7,1.35 0.55,5.05 l -0.55,0.2 v -1.05 m -9.4,-2.1 -0.5,-0.1 Q -23,159.55 -23,154.9 h 1.05 v 8.35 1.05 m 19.75,2.1 v -5.25 h 1.05 l 0.1,1.05 q 0.65,3.85 -1.15,5.25 v -1.05 m -30.15,-1.05 -0.55,-0.1 q -0.5,-5.7 -0.5,-11.4 h 1.05 v 10.45 1.05 M -53.2,164.3 v -1.05 -4.15 q 1.75,1.3 0.6,5 -0.1,0.2 -0.6,0.2"
   id="path3999"
   inkscape:connector-curvature="0" />
<path
   style="fill:#060606;fill-opacity:1"
   d="m -23,154.9 q 0,4.65 0.55,9.3 l 0.5,0.1 q -0.6,7.9 8.05,5.35 l 0.6,-1.05 0.75,-1.15 0.55,-0.2 q 1.15,-3.7 -0.55,-5.05 -0.55,-0.45 -0.75,-1.1 -0.3,-0.95 -0.85,-1.35 -1.55,-1.25 -2.3,-2.85 -1.45,-2.95 -5.5,-3.05 v 1.05 H -23 m 20.8,12.55 -1.05,2.2 -1.6,2.55 -3.15,3.9 q -3.4,3.9 -10.85,3.8 l -0.75,-0.15 q -1.4,-1.85 -4.45,-1.95 -0.85,-2.15 -2.85,-3.5 -4.4,-2.75 -5.45,-8.95 v -1.05 -10.45 -0.95 -2.1 q 1.55,-2.55 3.9,-4.45 l 0.3,-0.8 3.9,-1.4 0.2,-0.65 h 7.3 1.05 q 1.7,1.3 4.2,2 l 1.05,0.05 6.45,7.05 0.75,0.3 q 0.8,3.9 2,7.3 l 0.1,0.95 H -2.2 v 5.25 1.05 m -117.7,-21.9 V 145 q 4.1,-0.5 5.25,2.65 5.7,1.55 8.75,5.9 l 1.05,1.75 q 1.6,3.2 2.65,1.7 0.5,0 0.7,-0.2 1.4,-3.45 2.45,-7.05 l 0.75,-0.3 q 2.85,-3.95 7.55,-5.95 h 1.05 q 3.6,0 5.2,2.05 0.2,2.8 -1.3,3.75 -0.8,0.35 -0.8,0.65 -0.85,4.1 -4.15,4.95 l -0.2,0.95 q -0.75,1.25 -0.75,3.25 -0.6,0 -0.85,0.25 -2.7,2.5 -3.35,7.05 -0.1,0.5 0.2,0.85 2.2,2.4 4.95,4.4 l 0.25,0.95 q 1.25,2.2 1.85,5.2 0.55,0 0.85,0.3 l 2.25,2.85 V 182 q 0.2,3.35 -2.05,4.2 -5.85,-0.5 -8.4,-4.1 l -0.65,-1.25 q -2.4,-5.1 -5.55,-9.2 -0.55,-0.1 -0.75,0.2 -4.45,4.45 -9.7,8.05 l -0.2,0.95 q -0.75,1.25 -0.75,3.25 -0.55,0 -0.55,0.2 -1.45,3.05 -5.75,2.95 0,-0.6 -0.15,-0.85 -1.75,-2.6 -0.85,-7.55 3.6,-7.8 11.2,-11.85 l 0.2,-0.6 q -4.55,-6.95 -10.1,-12.75 l -0.3,-0.75 v -1.05 -6.3"
   id="path4001"
   inkscape:connector-curvature="0" />
<path
   style="fill:#9c9c9c;fill-opacity:1"
   d="m -145.4,172.6 q -0.55,-3.05 -0.55,-6.2 1.8,1.35 1.15,5.25 l -0.1,1.05 -0.5,-0.1 m 86.4,-24 q -0.45,-3.6 -0.45,-7.2 1.8,1.8 1.15,6.25 l -0.1,1.05 -0.6,-0.1"
   id="path4003"
   inkscape:connector-curvature="0" />
<path
   style="fill:#050505;fill-opacity:1"
   d="m -143.85,164.3 h -1.05 -1.05 v 1.05 1.05 q 0,3.15 0.55,6.2 l 0.5,0.1 q 4.85,4.95 13.4,6.65 h 1.15 q 3.35,-0.2 4.2,1.6 -0.3,3.35 -3.15,4.1 l -1.05,0.1 h -1.05 -5.15 -1 q -5.35,0.1 -9.45,-1.05 0,-0.55 -0.3,-0.75 -5.5,-4.85 -10.05,-10.65 v -1.05 -8.4 q 4.95,-5.5 7.1,-13.6 l 0.1,-0.95 q 2.4,-2.35 6.1,-3.6 l 0.2,-0.6 q 7.05,-0.35 12.55,1 l 0.95,0.05 q 4.4,4.95 7.7,10.75 0.7,1.25 0.7,2.8 -1.65,3.6 -5.25,5 l -1.05,0.2 h -1.05 -9.3 -1.05 -4.2 m 9.4,-4.15 q 2.75,-0.9 3.05,-4.2 v -1.05 q 0,-0.5 -0.1,-0.5 l -6.05,-0.55 v 1.05 q -0.6,0 -0.9,0.3 -1.8,1.3 -4.35,1.8 -0.75,2.85 1.05,3.15 h 1.05 q 1.8,1.8 6.05,0.55 l 0.2,-0.55 m 91.65,2.05 v 1.05 q -0.3,4.85 -2.1,8.4 l -3.15,2.1 q -1.5,0.95 -3.25,1.6 -4.05,1.45 -7.3,3.35 -6.95,4 -11.4,10.55 -3.35,4.75 -4,-2 v -1.05 -10.45 -0.95 -4.2 q 1.7,-0.85 1.6,-4.3 -0.1,-0.95 0.2,-2.1 0.65,-2.55 2.25,-4.05 l 1.05,-11.45 v -1.05 l 4.85,-6.85 1.05,-0.95 q 2.3,-1.9 3.55,1.55 0,3.6 0.45,7.2 l 0.6,0.1 h 7.3 1.05 q 4.1,3.05 6.95,7.45 0.3,0.35 0.3,0.85 v 4.15 1.05 m -9.8,1.9 q 1.15,-3.7 -0.6,-5 -1.1,-0.95 -3.1,-1.05 -1.05,0 -1.15,0.25 -1.8,6.8 -6.2,10.2 -0.3,4.75 4.1,2 0.55,-0.5 1.15,-0.5 5.5,-0.15 5.2,-5.7 0.5,0 0.6,-0.2"
   id="path4005"
   inkscape:connector-curvature="0" />
<path
   style="fill:#b9b9b9;fill-opacity:1"
   d="m -74,187.25 -0.6,-0.1 q -0.45,-5.7 -0.45,-11.4 H -74 v 10.45 1.05"
   id="path4007"
   inkscape:connector-curvature="0" />
<path
   style="fill:#989898;fill-opacity:1"
   d="M -42.8,161.15 V 157 q 1.8,1.3 0.55,5.05 l -0.55,0.15 v -1.05"
   id="path4009"
   inkscape:connector-curvature="0" />
<path
   style="fill:#8c8c8c;fill-opacity:1"
   d="m -131.4,154.9 h -1.05 -5.1 v -1.05 l 6.05,0.55 q 0.1,0 0.1,0.5 m 11.5,-3.05 v 1.05 l -0.55,-0.1 -0.45,-7.25 h 1 v 6.3"
   id="path4011"
   inkscape:connector-curvature="0" />
<path
   style="fill:#4c4c4c;fill-opacity:1"
   d="m -139.65,164.3 h 1.05 v 1.05 l -1.05,0.1 q -3.45,0.6 -4.2,-1.15 h 4.2"
   id="path4013"
   inkscape:connector-curvature="0" />
<path
   style="fill:#272727;fill-opacity:1"
   d="m -138.6,164.3 h 9.3 1.05 v 0.5 l -10.35,0.55 v -1.05"
   id="path4015"
   inkscape:connector-curvature="0" />
<path
   style="fill:#757575;fill-opacity:1"
   d="m -134.65,160.7 q -4.25,1.25 -6.05,-0.55 h 5.2 1.05 l -0.2,0.55"
   id="path4017"
   inkscape:connector-curvature="0" />
<path
   style="fill:#383838;fill-opacity:1"
   d="m -130.35,185.15 -0.1,0.55 q -4.25,1.25 -6.1,-0.55 h 5.15 1.05"
   id="path4019"
   inkscape:connector-curvature="0" />
<path
   style="fill:none;stroke:#000000;stroke-width:0.05;stroke-linecap:round;stroke-linejoin:round;stroke-miterlimit:3;stroke-opacity:1"
   d="m -21.95,154.9 v -1.05 q 4.05,0.1 5.5,3.05 0.75,1.6 2.3,2.85 0.55,0.4 0.85,1.35 0.2,0.65 0.75,1.1 v 4.2 1.05 l -0.75,1.15 -0.6,1.05 q -8.65,2.55 -8.05,-5.35 m 0,-9.4 v 8.35 1.05 m -10.4,-10.45 v -0.95 -2.1 q 1.55,-2.55 3.9,-4.45 l 0.3,-0.8 3.9,-1.4 0.2,-0.65 h 7.3 1.05 q 1.7,1.3 4.2,2 l 1.05,0.05 6.45,7.05 0.75,0.3 q 0.8,3.9 2,7.3 l 0.1,0.95 0.1,1.05 q 0.65,3.85 -1.15,5.25 l -1.05,2.2 -1.6,2.55 -3.15,3.9 q -3.4,3.9 -10.85,3.8 l -0.75,-0.15 q -1.4,-1.85 -4.45,-1.95 -0.85,-2.15 -2.85,-3.5 -4.4,-2.75 -5.45,-8.95 l -0.55,-0.1 q -0.5,-5.7 -0.5,-11.4 h 1.05 m -106.25,11.5 -1.05,0.1 q -3.45,0.6 -4.2,-1.15 h -1.05 -1.05 v 1.05 1.05 q 1.8,1.35 1.15,5.25 l -0.1,1.05 q 4.85,4.95 13.4,6.65 h 1.15 q 3.35,-0.2 4.2,1.6 -0.3,3.35 -3.15,4.1 l -1.05,0.1 -0.1,0.55 q -4.25,1.25 -6.1,-0.55 h -1 q -5.35,0.1 -9.45,-1.05 0,-0.55 -0.3,-0.75 -5.5,-4.85 -10.05,-10.65 v -1.05 -8.4 q 4.95,-5.5 7.1,-13.6 l 0.1,-0.95 q 2.4,-2.35 6.1,-3.6 l 0.2,-0.6 q 7.05,-0.35 12.55,1 l 0.95,0.05 q 4.4,4.95 7.7,10.75 0.7,1.25 0.7,2.8 -1.65,3.6 -5.25,5 l -1.05,0.2 h -1.05 -9.3 m 1.05,-9.4 q -0.6,0 -0.9,0.3 -1.8,1.3 -4.35,1.8 -0.75,2.85 1.05,3.15 h 1.05 5.2 1.05 q 2.75,-0.9 3.05,-4.2 v -1.05 m -6.15,0 v -1.05 l 6.05,0.55 q 0.1,0 0.1,0.5 m 11.5,-2 -0.55,-0.1 -0.45,-7.25 h 1 V 145 q 4.1,-0.5 5.25,2.65 5.7,1.55 8.75,5.9 l 1.05,1.75 q 1.6,3.2 2.65,1.7 0.5,0 0.7,-0.2 1.4,-3.45 2.45,-7.05 l 0.75,-0.3 q 2.85,-3.95 7.55,-5.95 h 1.05 q 3.6,0 5.2,2.05 0.2,2.8 -1.3,3.75 -0.8,0.35 -0.8,0.65 -0.85,4.1 -4.15,4.95 l -0.2,0.95 q -0.75,1.25 -0.75,3.25 -0.6,0 -0.85,0.25 -2.7,2.5 -3.35,7.05 -0.1,0.5 0.2,0.85 2.2,2.4 4.95,4.4 l 0.25,0.95 q 1.25,2.2 1.85,5.2 0.55,0 0.85,0.3 l 2.25,2.85 V 182 q 0.2,3.35 -2.05,4.2 -5.85,-0.5 -8.4,-4.1 l -0.65,-1.25 q -2.4,-5.1 -5.55,-9.2 -0.55,-0.1 -0.75,0.2 -4.45,4.45 -9.7,8.05 l -0.2,0.95 q -0.75,1.25 -0.75,3.25 -0.55,0 -0.55,0.2 -1.45,3.05 -5.75,2.95 0,-0.6 -0.15,-0.85 -1.75,-2.6 -0.85,-7.55 3.6,-7.8 11.2,-11.85 l 0.2,-0.6 q -4.55,-6.95 -10.1,-12.75 l -0.3,-0.75 m 45.9,22.85 v -0.95 -4.2 q 1.7,-0.85 1.6,-4.3 -0.1,-0.95 0.2,-2.1 0.65,-2.55 2.25,-4.05 l 1.05,-11.45 v -1.05 l 4.85,-6.85 1.05,-0.95 q 2.3,-1.9 3.55,1.55 0,3.6 0.45,7.2 l 0.6,0.1 h 7.3 1.05 q 4.1,3.05 6.95,7.45 0.3,0.35 0.3,0.85 v 4.15 1.05 1.05 q -0.3,4.85 -2.1,8.4 l -3.15,2.1 q -1.5,0.95 -3.25,1.6 -4.05,1.45 -7.3,3.35 -6.95,4 -11.4,10.55 -3.35,4.75 -4,-2 m 0,-11.5 v 10.45 1.05 m 20.8,-28.15 q -1.1,-0.95 -3.1,-1.05 -1.05,0 -1.15,0.25 -1.8,6.8 -6.2,10.2 -0.3,4.75 4.1,2 0.55,-0.5 1.15,-0.5 5.5,-0.15 5.2,-5.7 v -1.05 -4.15"
   id="path4021"
   inkscape:connector-curvature="0" />
<path
   style="fill:#fcbe00;fill-opacity:1"
   d="m 350,144.7 0.95,-0.2 v -1 l 6.2,0.45 0.1,0.55 q 5.7,0.4 8.05,4.3 l 0.2,0.95 q 3.9,1.8 5.15,6.3 l 0.1,0.95 0.55,0.1 q 1.8,9 -2.65,12.45 l -0.3,0.75 -1.8,1.35 v 1.05 l -0.2,0.75 q -1.3,1.25 -2.95,2.3 l -1.15,0.75 q -0.95,0.3 -1.7,0.75 -3.4,2.1 -6.45,-0.45 l -0.95,-0.2 q -6.6,-3.35 -9.55,-10.2 l -0.55,-0.1 q -0.45,-2 -0.45,-4.1 l -0.5,-0.05 q -0.55,-3.05 -0.55,-6.2 h 1.05 v -1.05 -5.15 h 1 v -1.05 q 2.5,-2.75 6.4,-4 m 0.95,8.2 v 0.95 h -1.05 v 8.35 1.05 h 1.05 l 0.95,4.2 0.1,1.05 0.85,1.15 0.2,0.95 q 2.3,0.75 5.25,0.95 l 1,0.1 q -0.05,-0.6 0.1,-0.6 4.8,-1.9 4,-8.85 l -0.2,-0.85 q -3.5,-5.3 -8.05,-9.5 h -1.05 q -2.1,0 -3.15,1.05 m -40.65,-9.4 5.15,0.45 0.1,0.55 4,0.5 0.2,0.55 q 5.9,3.9 9.15,10.5 l 0.15,0.95 0.6,0.1 q 1.5,7.8 -1.65,11.4 l -0.25,0.75 q -0.3,0.3 -0.8,0.3 v 1.05 l -0.25,0.75 -3.9,3.45 -0.1,0.55 q -1.9,0.5 -2.95,1.45 l -0.2,0.55 q -4.85,1.25 -7.15,-0.55 l -0.95,-0.2 q -6.95,-2.95 -9.5,-10.2 l -0.5,-0.1 q -0.55,-6.65 -0.55,-13.4 h 1.05 v -1.05 -3.15 q 2,-2.25 5.35,-3.05 l 0.95,-0.1 v -1.05 h 1.05 1 v -1 m -1,10.35 v 8.35 1.05 l 0.95,4.2 0.05,1.05 q 0.3,1.7 1.95,2.45 l 0.15,0.7 h 4.2 1.05 q 3.05,-1.7 4,-5.35 l 0.1,-0.95 v -1.05 -4.15 q -0.5,0 -0.75,-0.3 -0.3,-0.3 -0.3,-0.75 -0.5,0 -0.75,-0.3 l -2.3,-2.85 q -0.55,0 -0.65,-0.2 -1.25,-2.65 -3.55,-3.9 h -1.05 q -2.1,0 -3.1,1.05 v 0.95 m 85.4,-18.75 q 1.8,2.85 0.6,8.3 l -0.6,0.1 -0.1,1 q -1.1,5.05 -4.05,8.4 v 4.1 1.05 6.25 1.05 3.15 q 0,0.95 0.45,1.7 2.3,3.35 3.7,7.6 v 1.05 q 0.1,4.4 -3.1,5.25 -0.6,0 -0.9,-0.3 -6.45,-5.4 -8.45,-15.3 v -1.05 -1.05 l -0.55,-0.1 q -0.5,-4.65 -0.5,-9.3 h 1.05 v -1.05 -3.05 -1.05 -2.1 q 3.7,-2.45 4.1,-8.35 v -1.05 -1.05 -4.2 h 1.05 v -1.05 -1.05 -5.15 q 2,0 2.85,1.15 l 0.3,0.95 q 1.6,2.5 3.9,4.5 l 0.25,0.65 m -122.9,6.3 q 1.7,1.8 1.05,6.25 v 1.05 l 1.15,0.75 0.95,0.3 v -1.05 l 7.2,0.5 v 0.55 q 2.6,2 4.95,4.4 0.3,0.25 0.3,0.75 0.85,0.3 1.35,0.85 1.1,1.25 0.25,4.3 l -0.25,0.1 h -0.3 v 1 l 0.1,1.05 q 0.35,4.7 -2.2,6.3 l -0.2,0.95 q -1.9,3.25 -6.1,4.3 l -0.15,0.55 q -1.95,0.95 -3.9,1.45 h -1.05 l -0.3,0.65 q -1.9,0.95 -3.9,1.4 0,0.6 -0.3,0.8 -5.25,4.15 -9.15,9.7 l -0.05,0.45 q -3.15,0.7 -2,-3.6 v -1.05 -6.3 -1 -5.15 h 1.05 v -1.05 -5.25 q 1.7,0.1 1.6,-2.1 h 0.45 v -1.05 q 1.85,-0.85 1.15,-4.15 L 263.4,157 v -1.05 -5.15 h 1.05 q 1.8,-1.4 1.65,-5.3 -0.1,-0.5 0.55,-0.7 2.55,-0.75 3.05,-4.25 l 0.95,0.05 1.15,0.8 m 4.2,15.4 q -3.45,0 -4.2,2.3 v 1.05 1 q 0.2,2.8 -2.1,3.15 l -0.1,1.05 q -0.45,2 -2,3.15 -0.75,4.4 4,2.55 l 3.35,-0.45 H 277 q 1.35,-2.75 3.9,-4.55 l 0.2,-0.7 v -1.05 -6.25 q -1.7,-1.45 -5.1,-1.25"
   id="path4023"
   inkscape:connector-curvature="0" />
<path
   style="fill:none;stroke:#fcbe00;stroke-width:0.05;stroke-linecap:round;stroke-linejoin:round;stroke-miterlimit:3;stroke-opacity:1"
   d="m 343.6,148.7 v 1.05 h -1 v 5.15 1.05 h -1.05 q 0,3.15 0.55,6.2 l 0.5,0.05 q 0,2.1 0.45,4.1 l 0.55,0.1 q 2.95,6.85 9.55,10.2 l 0.95,0.2 q 3.05,2.55 6.45,0.45 0.75,-0.45 1.7,-0.75 l 1.15,-0.75 q 1.65,-1.05 2.95,-2.3 l 0.2,-0.75 v -1.05 l 1.8,-1.35 0.3,-0.75 q 4.45,-3.45 2.65,-12.45 l -0.55,-0.1 -0.1,-0.95 q -1.25,-4.5 -5.15,-6.3 l -0.2,-0.95 q -2.35,-3.9 -8.05,-4.3 l -0.1,-0.55 -6.2,-0.45 v 1 l -0.95,0.2 q -3.9,1.25 -6.4,4 m 7.35,4.2 v 0.95 h -1.05 v 8.35 1.05 h 1.05 l 0.95,4.2 0.1,1.05 0.85,1.15 0.2,0.95 q 2.3,0.75 5.25,0.95 l 1,0.1 q -0.05,-0.6 0.1,-0.6 4.8,-1.9 4,-8.85 l -0.2,-0.85 q -3.5,-5.3 -8.05,-9.5 h -1.05 q -2.1,0 -3.15,1.05 m -40.65,-8.4 h -1 -1.05 v 1.05 l -0.95,0.1 q -3.35,0.8 -5.35,3.05 v 3.15 1.05 h -1.05 q 0,6.75 0.55,13.4 l 0.5,0.1 q 2.55,7.25 9.5,10.2 l 0.95,0.2 q 2.3,1.8 7.15,0.55 l 0.2,-0.55 q 1.05,-0.95 2.95,-1.45 l 0.1,-0.55 3.9,-3.45 0.25,-0.75 v -1.05 q 0.5,0 0.8,-0.3 L 328,168.5 q 3.15,-3.6 1.65,-11.4 l -0.6,-0.1 -0.15,-0.95 q -3.25,-6.6 -9.15,-10.5 l -0.2,-0.55 -4,-0.5 -0.1,-0.55 -5.15,-0.45 v 1 m -1,8.4 q 1,-1.05 3.1,-1.05 h 1.05 q 2.3,1.25 3.55,3.9 0.1,0.2 0.65,0.2 l 2.3,2.85 q 0.25,0.3 0.75,0.3 0,0.45 0.3,0.75 0.25,0.3 0.75,0.3 v 4.15 1.05 l -0.1,0.95 q -0.95,3.65 -4,5.35 h -1.05 -4.2 l -0.15,-0.7 q -1.65,-0.75 -1.95,-2.45 l -0.05,-1.05 -0.95,-4.2 v -1.05 -8.35 -0.95 m 85.4,-17.8 q 1.8,2.85 0.6,8.3 l -0.6,0.1 -0.1,1 q -1.1,5.05 -4.05,8.4 v 4.1 1.05 6.25 1.05 3.15 q 0,0.95 0.45,1.7 2.3,3.35 3.7,7.6 v 1.05 q 0.1,4.4 -3.1,5.25 -0.6,0 -0.9,-0.3 -6.45,-5.4 -8.45,-15.3 v -1.05 -1.05 l -0.55,-0.1 q -0.5,-4.65 -0.5,-9.3 h 1.05 v -1.05 -3.05 -1.05 -2.1 q 3.7,-2.45 4.1,-8.35 v -1.05 -1.05 -4.2 h 1.05 v -1.05 -1.05 -5.15 q 2,0 2.85,1.15 l 0.3,0.95 q 1.6,2.5 3.9,4.5 l 0.25,0.65 m -122.9,6.3 q 1.7,1.8 1.05,6.25 v 1.05 l 1.15,0.75 0.95,0.3 v -1.05 l 7.2,0.5 v 0.55 q 2.6,2 4.95,4.4 0.3,0.25 0.3,0.75 0.85,0.3 1.35,0.85 1.1,1.25 0.25,4.3 l -0.25,0.1 h -0.3 v 1 l 0.1,1.05 q 0.35,4.7 -2.2,6.3 l -0.2,0.95 q -1.9,3.25 -6.1,4.3 l -0.15,0.55 q -1.95,0.95 -3.9,1.45 h -1.05 l -0.3,0.65 q -1.9,0.95 -3.9,1.4 0,0.6 -0.3,0.8 -5.25,4.15 -9.15,9.7 l -0.05,0.45 q -3.15,0.7 -2,-3.6 v -1.05 -6.3 -1 -5.15 h 1.05 v -1.05 -5.25 q 1.7,0.1 1.6,-2.1 h 0.45 v -1.05 q 1.85,-0.85 1.15,-4.15 L 263.4,157 v -1.05 -5.15 h 1.05 q 1.8,-1.4 1.65,-5.3 -0.1,-0.5 0.55,-0.7 2.55,-0.75 3.05,-4.25 l 0.95,0.05 1.15,0.8 m 9.3,16.65 v 6.25 1.05 l -0.2,0.7 q -2.55,1.8 -3.9,4.55 h -2.05 l -3.35,0.45 q -4.75,1.85 -4,-2.55 1.55,-1.15 2,-3.15 l 0.1,-1.05 q 2.3,-0.35 2.1,-3.15 v -1 -1.05 q 0.75,-2.3 4.2,-2.3 3.4,-0.2 5.1,1.25"
   id="path4025"
   inkscape:connector-curvature="0" />
</g>
<g
   transform="translate(176.61897,-106.50367)"
   id="2">
<path
   id="path4069"
   d="m 220.68547,148.80303 q 4.01269,4.78137 4.01269,13.5215 v 2.8791 h -23.36505 q 0.30476,4.52431 3.25079,7.09494 2.84444,2.57062 7.61904,2.57062 l 5.02856,-0.61695 q 2.43809,-0.66836 4.67301,-1.95367 v 7.04352 q -2.3873,1.02825 -5.23174,1.59378 l -5.99364,0.51413 q -8.33015,0 -13.00316,-5.14125 -4.67301,-5.14126 -4.67301,-14.24128 0,-8.07177 4.57142,-13.1102 4.52063,-4.98702 11.83491,-4.98702 7.26348,0 11.27618,4.83278 m -11.32698,1.13108 q -3.30158,0 -5.43491,2.51921 -2.13333,2.51922 -2.59047,7.04352 h 15.64442 q -0.35555,-4.5243 -2.3873,-7.04352 -1.98095,-2.51921 -5.23174,-2.51921 m -23.06028,-4.62713 1.62539,0.46271 -0.66032,7.19776 q -2.28571,-0.97684 -3.86031,-1.38814 l -2.84444,-0.46271 q -4.7746,0 -7.66983,3.18757 -2.94603,3.13617 -2.94603,8.27742 0,5.14126 2.94603,8.43166 2.89523,3.23899 7.56824,3.23899 l 3.45397,-0.51412 q 1.72698,-0.56554 3.9111,-1.79944 l 0.30476,7.30058 -5.5365,1.74803 -3.75872,0.46271 q -8.12698,0 -12.95237,-5.19267 -4.87618,-5.19267 -4.87618,-13.88139 0,-7.96894 5.02856,-13.21302 4.97778,-5.19267 12.6984,-5.19267 2.84444,0 7.56825,1.33673 m -46.37455,-0.4113 -12.03808,35.62889 h -9.80316 l -11.83491,-35.62889 h 9.14285 l 7.9238,27.40289 8.12697,-27.40289 h 8.48253 m 13.4603,0 v 35.62889 h -8.48253 v -35.62889 h 8.48253 m -8.48253,-15.98931 h 8.48253 v 8.84296 h -8.48253 v -8.84296 m -52.672951,15.98931 v 7.09493 q 1.574602,-4.01018 4.063487,-5.96386 2.387299,-2.00509 5.739674,-2.00509 l 1.26984,0.10283 1.67619,0.25706 -0.35556,8.22601 -1.37142,-0.35989 -1.52381,-0.10282 q -4.266661,0 -6.450785,2.98192 -2.184125,2.98193 -2.184125,8.74014 v 16.65766 h -8.533323 v -35.62889 h 7.669832 m -29.663456,5.03843 q -3.301583,0 -5.434914,2.51921 -2.13333,2.51922 -2.590473,7.04352 h 15.644426 q -0.355555,-4.5243 -2.387299,-7.04352 -1.98095,-2.51921 -5.23174,-2.51921 m 11.326971,-1.13108 q 4.012693,4.78137 4.012693,13.5215 v 2.8791 H 54.539636 q 0.304762,4.52431 3.25079,7.09494 2.844441,2.57062 7.619038,2.57062 l 5.028566,-0.61695 q 2.438092,-0.66836 4.67301,-1.95367 v 7.04352 l -5.23174,1.59378 -5.993643,0.51413 q -8.330149,0 -13.003159,-5.14125 -4.67301,-5.14126 -4.67301,-14.24128 0,-8.07177 4.571423,-13.1102 4.520629,-4.98702 11.834906,-4.98702 7.263483,0 11.276177,4.83278 m -39.77138,-4.42148 q 1.98095,0.4113 5.587295,1.59379 l -0.660317,6.78646 q -2.184124,-1.28532 -4.317455,-1.90227 l -4.266662,-0.61695 q -2.285711,0 -3.504757,0.87402 -1.26984,0.8226 -1.26984,2.41639 0,2.36497 5.23174,4.83278 l 0.863491,0.4113 q 5.333326,2.57062 7.36507,5.03843 1.98095,2.41639 1.98095,6.01526 0,5.08985 -3.758726,8.07177 -3.758725,2.98193 -10.311098,2.98193 l -5.333327,-0.46271 Q 19.136505,179.95904 16.8,179.03361 l 0.457142,-7.04352 q 2.387299,1.28531 4.876185,1.95368 l 4.876184,0.61695 q 2.53968,0 3.9619,-0.92543 1.371427,-0.92542 1.371427,-2.51921 0,-2.62204 -6.603166,-6.16951 l -0.152381,-0.10282 q -4.926978,-2.62204 -6.65396,-4.8842 -1.726982,-2.21074 -1.726982,-5.39831 0,-4.72996 3.707932,-7.66047 3.657138,-2.93052 9.701575,-2.93052 l 3.504758,0.4113"
   style="fill:#070201;fill-opacity:1;stroke-width:1.02204263"
   inkscape:connector-curvature="0" />
</g></svg>