<?xml version="1.0" encoding="UTF-8" standalone="no"?>
<svg
   xmlns:dc="http://purl.org/dc/elements/1.1/"
   xmlns:cc="http://creativecommons.org/ns#"
   xmlns:rdf="http://www.w3.org/1999/02/22-rdf-syntax-ns#"
   xmlns:svg="http://www.w3.org/2000/svg"
   xmlns="http://www.w3.org/2000/svg"
   xmlns:sodipodi="http://sodipodi.sourceforge.net/DTD/sodipodi-0.dtd"
   xmlns:inkscape="http://www.inkscape.org/namespaces/inkscape"
   version="1.1"
   id="Layer_1"
   width="581px"
   height="430px"
   xml:space="preserve"
   sodipodi:docname="shape1.svg"
   inkscape:version="0.92.4 (5da689c313, 2019-01-14)"><metadata
   id="metadata52"><rdf:RDF><cc:Work
       rdf:about=""><dc:format>image/svg+xml</dc:format><dc:type
         rdf:resource="http://purl.org/dc/dcmitype/StillImage" /></cc:Work></rdf:RDF></metadata><defs
   id="defs50" /><sodipodi:namedview
   pagecolor="#ffffff"
   bordercolor="#666666"
   borderopacity="1"
   objecttolerance="10"
   gridtolerance="10"
   guidetolerance="10"
   inkscape:pageopacity="0"
   inkscape:pageshadow="2"
   inkscape:window-width="1920"
   inkscape:window-height="1017"
   id="namedview48"
   showgrid="false"
   inkscape:snap-grids="false"
   inkscape:zoom="1.9767442"
   inkscape:cx="290.5"
   inkscape:cy="202.93405"
   inkscape:window-x="-8"
   inkscape:window-y="-8"
   inkscape:window-maximized="1"
   inkscape:current-layer="Layer_1" />
<g
   id="0"
   transform="matrix(1.3353676,0,0,1.3639526,300.30872,235.63733)">
<radialGradient
   id="RadialGradID_1"
   gradientUnits="userSpaceOnUse"
   gradientTransform="matrix(0.454895,0,0,0.454895,-3,-25)"
   spreadMethod="pad"
   cx="0"
   cy="0"
   r="819.20001"
   fx="0"
   fy="0">
<stop
   offset="0"
   style="stop-color:#928F8F;stop-opacity:1"
   id="stop32" />
<stop
   offset="1"
   style="stop-color:#717070;stop-opacity:0"
   id="stop34" />
</radialGradient>
<path
   style="fill:url(#RadialGradID_1)"
   d="m 5.4,-22.3 h -12 v -12 h 12 v 12"
   id="path37"
   inkscape:connector-curvature="0" />
<radialGradient
   id="RadialGradID_2"
   gradientUnits="userSpaceOnUse"
   gradientTransform="matrix(0.320786,0.121979,-0.0666962,0.175415,16,-23)"
   spreadMethod="pad"
   cx="0"
   cy="0"
   r="819.20001"
   fx="0"
   fy="0">
<stop
   offset="0"
   style="stop-color:#928F8F;stop-opacity:1"
   id="stop39" />
<stop
   offset="1"
   style="stop-color:#717070;stop-opacity:0"
   id="stop41" />
</radialGradient>
<path
   style="fill:url(#RadialGradID_2)"
   d="m 200.4,-234.7 v 12 h -12 v -12 h 12 m -32.5,28.7 h -12 v -12 h 12 v 12 m 4.25,-12 h 12 v 12 h -12 v -12 m 28.25,16.7 v 12 h -12 v -12 h 12 m -12,-16.7 h 12 v 12 h -12 v -12 m -20.5,-4.7 h -12 v -12 h 12 v 12 m 4.25,0 v -12 h 12 v 12 h -12 m 12,21.4 v 12 h -12 v -12 h 12 m 32.5,-33.4 v 12 h -12 v -12 h 12 m -12,16.7 h 12 v 12 h -12 v -12 m 16.25,0 h 12 v 12 h -12 v -12 m -4.25,16.7 v 12 h -12 v -12 h 12 m 20.5,-16.7 h 12 v 12 h -12 v -12 m 0,-16.7 h 12 v 12 h -12 v -12 m -16.25,12 v -12 h 12 v 12 h -12 m 12,21.4 v 12 h -12 v -12 h 12 m 48.75,-33.4 v 12 h -12 v -12 h 12 M 253.4,-218 h 12 v 12 h -12 v -12 m 16.25,0 h 12 v 12 h -12 v -12 m 12,16.7 v 12 h -12 v -12 h 12 m -28.25,-21.4 v -12 h 12 v 12 h -12 m 12,21.4 v 12 h -12 v -12 h 12 m 32.5,-33.4 v 12 h -12 v -12 h 12 m -12,28.7 v -12 h 12 v 12 h -12 m 12,4.7 v 12 h -12 v -12 h 12 m -48.75,0 v 12 h -12 v -12 h 12 M 37.9,-234.7 v 12 h -12 v -12 h 12 M 9.65,-218 h 12 v 12 h -12 v -12 m -4.25,12 h -12 v -12 h 12 v 12 m 20.5,-12 h 12 v 12 h -12 v -12 m 12,16.7 v 12 h -12 v -12 h 12 M 5.4,-222.7 h -12 v -12 h 12 v 12 m 4.25,0 v -12 h 12 v 12 h -12 m 12,21.4 v 12 h -12 v -12 h 12 m 32.5,-33.4 v 12 h -12 v -12 h 12 m -12,16.7 h 12 v 12 h -12 v -12 m 16.25,0 h 12 v 12 h -12 v -12 m -4.25,16.7 v 12 h -12 v -12 h 12 m 20.5,-16.7 h 12 v 12 h -12 v -12 m 0,-16.7 h 12 v 12 h -12 v -12 m -16.25,12 v -12 h 12 v 12 h -12 m 12,21.4 v 12 h -12 v -12 h 12 m 48.75,-33.4 v 12 h -12 v -12 h 12 M 90.9,-218 h 12 v 12 h -12 v -12 m 16.25,0 h 12 v 12 h -12 v -12 m 12,16.7 v 12 h -12 v -12 h 12 M 90.9,-222.7 v -12 h 12 v 12 h -12 m 12,21.4 v 12 h -12 v -12 h 12 m 32.5,-33.4 v 12 h -12 v -12 h 12 m 0,33.4 v 12 h -12 v -12 h 12 m 4.25,-16.7 h 12 v 12 h -12 v -12 m -4.25,12 h -12 v -12 h 12 v 12 m 16.25,4.7 v 12 h -12 v -12 h 12 m 0,-21.4 h -12 v -12 h 12 v 12 m -65,21.4 v 12 h -12 v -12 h 12 m 48.75,16.7 v 12 h -12 v -12 h 12 m 0,33.4 v 12 h -12 v -12 h 12 m 4.25,-16.7 h 12 v 12 h -12 v -12 m -16.25,12 v -12 h 12 v 12 h -12 m 32.5,-12 h 12 v 12 h -12 v -12 m -4.25,16.7 v 12 h -12 v -12 h 12 m 0,-33.4 v 12 h -12 v -12 h 12 m 4.25,0 h 12 v 12 h -12 v -12 m -36.75,0 v 12 h -12 v -12 h 12 m -28.25,16.7 h 12 v 12 h -12 v -12 m -4.25,12 h -12 v -12 h 12 v 12 m 32.5,4.7 v 12 h -12 v -12 h 12 m 0,-16.7 v 12 h -12 v -12 h 12 m -16.25,16.7 v 12 h -12 v -12 h 12 m -16.25,-21.4 h -12 v -12 h 12 v 12 m 16.25,-12 v 12 h -12 v -12 h 12 m 16.25,50.1 v 12 h -12 v -12 h 12 m -32.5,28.7 h -12 v -12 h 12 v 12 m 4.25,-12 h 12 v 12 h -12 v -12 m 28.25,16.7 v 12 h -12 v -12 h 12 m -12,-16.7 h 12 v 12 h -12 v -12 m -4.25,16.7 v 12 h -12 v -12 h 12 m -16.25,-21.4 h -12 v -12 h 12 v 12 m 16.25,-12 v 12 h -12 v -12 h 12 m 32.5,0 v 12 h -12 v -12 h 12 m 0,33.4 v 12 h -12 v -12 h 12 m 0,-4.7 h -12 v -12 h 12 v 12 m 4.25,-12 h 12 v 12 h -12 v -12 m 16.25,0 h 12 v 12 h -12 v -12 m -4.25,16.7 v 12 h -12 v -12 h 12 m 4.25,-33.4 h 12 v 12 h -12 v -12 m -4.25,12 h -12 v -12 h 12 v 12 m -65,-16.7 h -12 v -12 h 12 v 12 m 69.25,-12 h 12 v 12 h -12 v -12 M 54.15,-184.6 v 12 h -12 v -12 h 12 m 4.25,16.7 h 12 v 12 h -12 v -12 m -16.25,12 v -12 h 12 v 12 h -12 m 12,4.7 v 12 h -12 v -12 h 12 m 16.25,0 v 12 h -12 v -12 h 12 m 0,-33.4 v 12 h -12 v -12 h 12 m -32.5,0 v 12 h -12 v -12 h 12 m -32.5,28.7 h -12 v -12 h 12 v 12 m 4.25,-12 h 12 v 12 h -12 v -12 m 28.25,16.7 v 12 h -12 v -12 h 12 m 0,-4.7 h -12 v -12 h 12 v 12 m -16.25,4.7 v 12 h -12 v -12 h 12 M 5.4,-172.6 h -12 v -12 h 12 v 12 m 16.25,0 h -12 v -12 h 12 v 12 m 16.25,38.1 v 12 h -12 v -12 h 12 m -28.25,16.7 h 12 v 12 h -12 v -12 m -4.25,12 h -12 v -12 h 12 v 12 m 32.5,4.7 v 12 h -12 v -12 h 12 m 0,-16.7 v 12 h -12 v -12 h 12 m -16.25,16.7 v 12 h -12 v -12 h 12 M 5.4,-122.5 h -12 v -12 h 12 v 12 m 16.25,-12 v 12 h -12 v -12 h 12 m 32.5,0 v 12 h -12 v -12 h 12 m 0,33.4 v 12 h -12 v -12 h 12 m 0,-4.7 h -12 v -12 h 12 v 12 m 4.25,-12 h 12 v 12 h -12 v -12 m 12,16.7 v 12 h -12 v -12 h 12 m 0,-21.4 h -12 v -12 h 12 v 12 m -65,-16.7 h -12 v -12 h 12 v 12 m 48.75,54.8 v 12 h -12 v -12 h 12 m -12,28.7 v -12 h 12 v 12 h -12 m 12,4.7 v 12 h -12 v -12 h 12 m 4.25,-16.7 h 12 v 12 h -12 v -12 m 16.25,0 h 12 v 12 h -12 v -12 M 70.4,-51 v 12 h -12 v -12 h 12 m 0,-33.4 v 12 h -12 v -12 h 12 m 4.25,0 h 12 v 12 h -12 v -12 m -36.75,0 v 12 h -12 v -12 h 12 M 5.4,-55.7 h -12 v -12 h 12 v 12 m 4.25,-12 h 12 v 12 h -12 v -12 M 37.9,-51 v 12 h -12 v -12 h 12 m -12,-4.7 v -12 h 12 v 12 h -12 m -4.25,4.7 v 12 h -12 v -12 h 12 M 5.4,-72.4 h -12 v -12 h 12 v 12 m 16.25,0 h -12 v -12 h 12 v 12 m 16.25,38.1 v 12 h -12 v -12 h 12 M 5.4,-5.6 h -12 v -12 h 12 v 12 m 4.25,-12 h 12 v 12 h -12 v -12 M 37.9,-0.9 v 12 h -12 v -12 h 12 m 0,-4.7 h -12 v -12 h 12 v 12 m -16.25,4.7 v 12 h -12 v -12 h 12 m 0,-33.4 v 12 h -12 v -12 h 12 m 32.5,0 v 12 h -12 v -12 h 12 m 4.25,16.7 h 12 v 12 h -12 v -12 m -16.25,12 v -12 h 12 v 12 h -12 m 12,4.7 v 12 h -12 v -12 h 12 m 20.5,-16.7 h 12 v 12 h -12 v -12 M 70.4,-0.9 v 12 h -12 v -12 h 12 m 4.25,-33.4 h 12 v 12 h -12 v -12 m -4.25,0 v 12 h -12 v -12 h 12 M 5.4,-39 h -12 v -12 h 12 v 12 m 69.25,-12 h 12 v 12 h -12 v -12 m 60.75,-33.4 v 12 h -12 v -12 h 12 m 4.25,16.7 h 12 v 12 h -12 v -12 m -16.25,12 v -12 h 12 v 12 h -12 m 12,4.7 v 12 h -12 v -12 h 12 m 20.5,-16.7 h 12 v 12 h -12 v -12 m -4.25,16.7 v 12 h -12 v -12 h 12 m 4.25,-33.4 h 12 v 12 h -12 v -12 m -4.25,12 h -12 v -12 h 12 v 12 m -32.5,-12 v 12 h -12 v -12 h 12 M 90.9,-67.7 h 12 v 12 h -12 v -12 m 28.25,16.7 v 12 h -12 v -12 h 12 m 0,-4.7 h -12 v -12 h 12 v 12 M 102.9,-51 v 12 h -12 v -12 h 12 m 0,-21.4 h -12 v -12 h 12 v 12 m 16.25,38.1 v 12 h -12 v -12 h 12 M 90.9,-17.6 h 12 v 12 h -12 v -12 m 28.25,16.7 v 12 h -12 v -12 h 12 m -12,-4.7 v -12 h 12 v 12 h -12 m -4.25,4.7 v 12 h -12 v -12 h 12 m 0,-33.4 v 12 h -12 v -12 h 12 m 32.5,0 v 12 h -12 v -12 h 12 m 0,33.4 v 12 h -12 v -12 h 12 m -12,-16.7 h 12 v 12 h -12 v -12 m 16.25,0 h 12 v 12 h -12 v -12 m 16.25,0 h 12 v 12 h -12 v -12 m -4.25,16.7 v 12 h -12 v -12 h 12 m 4.25,-33.4 h 12 v 12 h -12 v -12 m -16.25,0 h 12 v 12 h -12 v -12 M 155.9,-51 h 12 v 12 h -12 v -12 m 0,-50.1 h 12 v 12 h -12 v -12 m -150.5,12 h -12 v -12 h 12 v 12 m 69.25,-12 h 12 v 12 h -12 v -12 m 12,100.2 v 12 h -12 v -12 h 12 M 297.9,-184.6 v 12 h -12 v -12 h 12 m -12,28.7 v -12 h 12 v 12 h -12 m 12,4.7 v 12 h -12 v -12 h 12 m -16.25,-33.4 v 12 h -12 v -12 h 12 m -28.25,16.7 h 12 v 12 h -12 v -12 m -4.25,12 h -12 v -12 h 12 v 12 m 32.5,4.7 v 12 h -12 v -12 h 12 m -12,-16.7 h 12 v 12 h -12 v -12 m -20.5,-4.7 h -12 v -12 h 12 v 12 m 16.25,-12 v 12 h -12 v -12 h 12 m 0,33.4 v 12 h -12 v -12 h 12 m 16.25,16.7 v 12 h -12 v -12 h 12 m -32.5,28.7 h -12 v -12 h 12 v 12 m 4.25,-12 h 12 v 12 h -12 v -12 m 16.25,12 v -12 h 12 v 12 h -12 m 12,4.7 v 12 h -12 v -12 h 12 m -32.5,-21.4 h -12 v -12 h 12 v 12 m 16.25,21.4 v 12 h -12 v -12 h 12 m -12,-21.4 v -12 h 12 v 12 h -12 m 44.5,-12 v 12 h -12 v -12 h 12 m -12,28.7 v -12 h 12 v 12 h -12 m 12,4.7 v 12 h -12 v -12 h 12 m -48.75,-38.1 h -12 v -12 h 12 v 12 m -32.5,-45.4 v 12 h -12 v -12 h 12 m -12,16.7 h 12 v 12 h -12 v -12 m 16.25,0 h 12 v 12 h -12 v -12 m -4.25,16.7 v 12 h -12 v -12 h 12 m 16.25,0 v 12 h -12 v -12 h 12 m -12,-33.4 h 12 v 12 h -12 v -12 m -20.5,0 v 12 h -12 v -12 h 12 m -28.25,16.7 h 12 v 12 h -12 v -12 m 16.25,0 h 12 v 12 h -12 v -12 m 12,16.7 v 12 h -12 v -12 h 12 m -28.25,-21.4 v -12 h 12 v 12 h -12 m 12,21.4 v 12 h -12 v -12 h 12 m 16.25,16.7 v 12 h -12 v -12 h 12 m -28.25,16.7 h 12 v 12 h -12 v -12 m 16.25,12 v -12 h 12 v 12 h -12 m 12,4.7 v 12 h -12 v -12 h 12 m -16.25,0 v 12 h -12 v -12 h 12 m -12,-21.4 v -12 h 12 v 12 h -12 m 44.5,-12 v 12 h -12 v -12 h 12 m 0,33.4 v 12 h -12 v -12 h 12 m 0,-4.7 h -12 v -12 h 12 v 12 m 4.25,-12 h 12 v 12 h -12 v -12 m 12,16.7 v 12 h -12 v -12 h 12 m 0,-21.4 h -12 v -12 h 12 v 12 m -16.25,38.1 v 12 h -12 v -12 h 12 m 0,33.4 v 12 h -12 v -12 h 12 m 0,-4.7 h -12 v -12 h 12 v 12 m 4.25,-12 h 12 v 12 h -12 v -12 m 16.25,0 h 12 v 12 h -12 v -12 M 232.9,-51 v 12 h -12 v -12 h 12 m 4.25,-33.4 h 12 v 12 h -12 v -12 m -4.25,12 h -12 v -12 h 12 v 12 m -32.5,-12 v 12 h -12 v -12 h 12 m -28.25,16.7 h 12 v 12 h -12 v -12 M 200.4,-51 v 12 h -12 v -12 h 12 m 0,-4.7 h -12 v -12 h 12 v 12 m -16.25,4.7 v 12 h -12 v -12 h 12 m 0,-33.4 v 12 h -12 v -12 h 12 m 16.25,50.1 v 12 h -12 v -12 h 12 m -28.25,16.7 h 12 v 12 h -12 v -12 m 28.25,16.7 v 12 h -12 v -12 h 12 m -12,-4.7 v -12 h 12 v 12 h -12 m -4.25,4.7 v 12 h -12 v -12 h 12 m 0,-33.4 v 12 h -12 v -12 h 12 m 32.5,0 v 12 h -12 v -12 h 12 m 4.25,16.7 h 12 v 12 h -12 v -12 m -4.25,16.7 v 12 h -12 v -12 h 12 m -12,-4.7 v -12 h 12 v 12 h -12 m 32.5,-12 h 12 v 12 h -12 v -12 m -4.25,16.7 v 12 h -12 v -12 h 12 m 4.25,-33.4 h 12 v 12 h -12 v -12 m -16.25,0 h 12 v 12 h -12 v -12 M 237.15,-51 h 12 v 12 h -12 v -12 m 60.75,-33.4 v 12 h -12 v -12 h 12 m -12,28.7 v -12 h 12 v 12 h -12 m 12,4.7 v 12 h -12 v -12 h 12 m -16.25,-33.4 v 12 h -12 v -12 h 12 m -28.25,16.7 h 12 v 12 h -12 v -12 m 28.25,16.7 v 12 h -12 v -12 h 12 m 0,-4.7 h -12 v -12 h 12 v 12 M 265.4,-51 v 12 h -12 v -12 h 12 m 0,-21.4 h -12 v -12 h 12 v 12 m 16.25,38.1 v 12 h -12 v -12 h 12 m -28.25,16.7 h 12 v 12 h -12 v -12 m 28.25,16.7 v 12 h -12 v -12 h 12 m -12,-4.7 v -12 h 12 v 12 h -12 m -4.25,4.7 v 12 h -12 v -12 h 12 m 0,-33.4 v 12 h -12 v -12 h 12 m 32.5,0 v 12 h -12 v -12 h 12 m 0,28.7 h -12 v -12 h 12 v 12 m 0,4.7 v 12 h -12 v -12 h 12 m -60.75,-100.2 h 12 v 12 h -12 v -12 m 12,100.2 v 12 h -12 v -12 h 12 M 5.4,-189.3 h -12 v -12 h 12 v 12 m 150.5,-12 h 12 v 12 h -12 v -12 m 12,200.4 v 12 h -12 v -12 h 12 m 130,16.7 v 12 h -12 v -12 h 12 m 0,33.4 v 12 h -12 v -12 h 12 m -12,-4.7 v -12 h 12 v 12 h -12 m -4.25,-28.7 v 12 h -12 v -12 h 12 m -32.5,28.7 h -12 v -12 h 12 v 12 m 4.25,-12 h 12 v 12 h -12 v -12 m 16.25,0 h 12 v 12 h -12 v -12 m 12,16.7 v 12 h -12 v -12 h 12 m -32.5,-21.4 h -12 v -12 h 12 v 12 m 4.25,0 v -12 h 12 v 12 h -12 m 12,21.4 v 12 h -12 v -12 h 12 m 16.25,16.7 v 12 h -12 v -12 h 12 m -32.5,28.7 h -12 v -12 h 12 v 12 m 4.25,-12 h 12 v 12 h -12 v -12 m 16.25,0 h 12 v 12 h -12 v -12 m -20.5,-4.7 h -12 v -12 h 12 v 12 m 16.25,-12 v 12 h -12 v -12 h 12 m 32.5,0 v 12 h -12 v -12 h 12 m -12,16.7 h 12 v 12 h -12 v -12 M 249.15,61.2 h -12 v -12 h 12 v 12 m -32.5,-45.4 v 12 h -12 v -12 h 12 m -12,16.7 h 12 v 12 h -12 v -12 m 16.25,0 h 12 v 12 h -12 v -12 m -4.25,16.7 v 12 h -12 v -12 h 12 m 16.25,0 v 12 h -12 v -12 h 12 m -12,-33.4 h 12 v 12 h -12 v -12 m -20.5,0 v 12 h -12 v -12 h 12 m -32.5,28.7 h -12 v -12 h 12 v 12 m 4.25,-12 h 12 v 12 h -12 v -12 m 16.25,0 h 12 v 12 h -12 v -12 m 12,16.7 v 12 h -12 v -12 h 12 M 167.9,27.8 h -12 v -12 h 12 v 12 m 4.25,0 v -12 h 12 v 12 h -12 m 12,21.4 v 12 h -12 v -12 h 12 m 16.25,16.7 v 12 h -12 v -12 h 12 m -32.5,28.7 h -12 v -12 h 12 v 12 m 4.25,-12 h 12 v 12 h -12 v -12 m 16.25,0 h 12 v 12 h -12 v -12 m -20.5,-4.7 h -12 v -12 h 12 v 12 m 4.25,-12 h 12 v 12 h -12 v -12 m 44.5,0 v 12 h -12 v -12 h 12 m -12,16.7 h 12 v 12 h -12 v -12 m 16.25,0 h 12 v 12 h -12 v -12 m 12,-4.7 h -12 v -12 h 12 v 12 m -65,-16.7 h -12 v -12 h 12 v 12 m 65,50.1 h -12 v -12 h 12 v 12 m 4.25,-12 h 12 v 12 h -12 v -12 m -32.5,0 h 12 v 12 h -12 v -12 m 12,16.7 v 12 h -12 v -12 h 12 m 0,16.7 v 12 h -12 v -12 h 12 m 4.25,0 h 12 v 12 h -12 v -12 m 16.25,0 h 12 v 12 h -12 v -12 m 0,-16.7 h 12 v 12 h -12 v -12 m -4.25,12 h -12 v -12 h 12 v 12 m -48.75,-16.7 h -12 v -12 h 12 v 12 m 4.25,-12 h 12 v 12 h -12 v -12 m 12,16.7 v 12 h -12 v -12 h 12 m -32.5,-4.7 h -12 v -12 h 12 v 12 m 0,33.4 h -12 v -12 h 12 v 12 m 4.25,-12 h 12 v 12 h -12 v -12 m 28.25,0 v 12 h -12 v -12 h 12 M 167.9,128 h -12 v -12 h 12 v 12 m 16.25,0 h -12 v -12 h 12 v 12 m 4.25,33.4 v -12 h 12 v 12 h -12 m -4.25,0 h -12 v -12 h 12 v 12 m 16.25,4.7 v 12 h -12 v -12 h 12 m -32.5,-4.7 h -12 v -12 h 12 v 12 m 4.25,21.4 h 12 v 12 h -12 v -12 m -4.25,12 h -12 v -12 h 12 v 12 m 32.5,0 h -12 v -12 h 12 v 12 m -32.5,-16.7 h -12 v -12 h 12 v 12 m 4.25,0 v -12 h 12 v 12 h -12 m 65,-28.7 h 12 v 12 h -12 v -12 m -4.25,12 h -12 v -12 h 12 v 12 m -28.25,0 v -12 h 12 v 12 h -12 m 12,4.7 v 12 h -12 v -12 h 12 m 4.25,16.7 h 12 v 12 h -12 v -12 m -4.25,12 h -12 v -12 h 12 v 12 m 20.5,-12 h 12 v 12 h -12 v -12 m 0,-16.7 h 12 v 12 h -12 v -12 m -16.25,12 v -12 h 12 v 12 h -12 m 77,-62.1 v 12 h -12 v -12 h 12 m -12,-16.7 h 12 v 12 h -12 v -12 m 0,33.4 h 12 v 12 h -12 v -12 M 281.65,116 v 12 h -12 v -12 h 12 m -16.25,-4.7 h -12 v -12 h 12 v 12 m 16.25,-12 v 12 h -12 v -12 h 12 m -28.25,33.4 h 12 v 12 h -12 v -12 m 28.25,12 h -12 v -12 h 12 v 12 M 253.4,116 h 12 v 12 h -12 v -12 m 12,45.4 h -12 v -12 h 12 v 12 m 16.25,4.7 v 12 h -12 v -12 h 12 m 0,-4.7 h -12 v -12 h 12 v 12 m -28.25,21.4 h 12 v 12 h -12 v -12 m 28.25,12 h -12 v -12 h 12 v 12 M 253.4,166.1 h 12 v 12 h -12 v -12 m 44.5,0 v 12 h -12 v -12 h 12 m -12,-16.7 h 12 v 12 h -12 v -12 m 0,45.4 v -12 h 12 v 12 h -12 M 135.4,15.8 v 12 h -12 v -12 h 12 m -12,16.7 h 12 v 12 h -12 v -12 m 16.25,0 h 12 v 12 h -12 v -12 m -4.25,16.7 v 12 h -12 v -12 h 12 m 4.25,-21.4 v -12 h 12 v 12 h -12 m 12,21.4 v 12 h -12 v -12 h 12 m -32.5,-33.4 v 12 h -12 v -12 h 12 M 90.9,32.5 h 12 v 12 h -12 v -12 m -4.25,12 h -12 v -12 h 12 v 12 m 20.5,-12 h 12 v 12 h -12 v -12 m 12,16.7 v 12 h -12 v -12 h 12 M 86.65,27.8 h -12 v -12 h 12 v 12 m 4.25,0 v -12 h 12 v 12 h -12 m 12,21.4 v 12 h -12 v -12 h 12 m 16.25,16.7 v 12 h -12 v -12 h 12 m -32.5,28.7 h -12 v -12 h 12 v 12 m 4.25,-12 h 12 v 12 h -12 v -12 m 16.25,0 h 12 v 12 h -12 v -12 m -20.5,-4.7 h -12 v -12 h 12 v 12 m 4.25,-12 h 12 v 12 h -12 v -12 m 44.5,0 v 12 h -12 v -12 h 12 m 4.25,16.7 h 12 v 12 h -12 v -12 m -4.25,12 h -12 v -12 h 12 v 12 m 16.25,-16.7 h -12 v -12 h 12 v 12 m -65,-16.7 h -12 v -12 h 12 v 12 M 54.15,15.8 v 12 h -12 v -12 h 12 m -12,16.7 h 12 v 12 h -12 v -12 m 16.25,0 h 12 v 12 h -12 v -12 m -4.25,16.7 v 12 h -12 v -12 h 12 m 16.25,0 v 12 h -12 v -12 h 12 m -12,-33.4 h 12 v 12 h -12 v -12 m -20.5,0 v 12 h -12 v -12 h 12 M 9.65,32.5 h 12 v 12 h -12 v -12 m -4.25,12 h -12 v -12 h 12 v 12 m 32.5,4.7 v 12 h -12 v -12 h 12 m -12,-4.7 v -12 h 12 v 12 h -12 m -4.25,4.7 v 12 h -12 v -12 h 12 M 5.4,27.8 h -12 v -12 h 12 v 12 m 4.25,-12 h 12 v 12 h -12 v -12 M 37.9,65.9 v 12 h -12 v -12 h 12 M 9.65,82.6 h 12 v 12 h -12 v -12 m -4.25,12 h -12 v -12 h 12 v 12 m 20.5,-12 h 12 v 12 h -12 v -12 M 5.4,77.9 h -12 v -12 h 12 v 12 m 16.25,-12 v 12 h -12 v -12 h 12 m 32.5,0 v 12 h -12 v -12 h 12 m -12,16.7 h 12 v 12 h -12 v -12 m 16.25,0 h 12 v 12 h -12 v -12 m 0,-4.7 v -12 h 12 v 12 h -12 M 5.4,61.2 h -12 v -12 h 12 v 12 m 65,50.1 h -12 v -12 h 12 v 12 m 4.25,-12 h 12 v 12 h -12 v -12 m -32.5,0 h 12 v 12 h -12 v -12 m 12,16.7 v 12 h -12 v -12 h 12 m 0,16.7 v 12 h -12 v -12 h 12 m 4.25,0 h 12 v 12 h -12 v -12 m 16.25,0 h 12 v 12 h -12 v -12 m 0,-16.7 h 12 v 12 h -12 V 116 M 58.4,128 v -12 h 12 v 12 h -12 M 21.65,111.3 h -12 v -12 h 12 v 12 m 4.25,-12 h 12 v 12 h -12 v -12 m 12,16.7 v 12 h -12 v -12 h 12 M 5.4,111.3 h -12 v -12 h 12 v 12 m 0,33.4 h -12 v -12 h 12 v 12 m 4.25,-12 h 12 v 12 h -12 v -12 m 28.25,12 h -12 v -12 h 12 v 12 M 5.4,128 h -12 v -12 h 12 v 12 m 4.25,0 v -12 h 12 v 12 h -12 m 28.25,38.1 v 12 h -12 v -12 h 12 m -16.25,-4.7 h -12 v -12 h 12 v 12 m 4.25,-12 h 12 v 12 h -12 v -12 m -20.5,12 h -12 v -12 h 12 v 12 m 0,33.4 h -12 v -12 h 12 v 12 m 4.25,-12 h 12 v 12 h -12 v -12 m 28.25,12 h -12 v -12 h 12 v 12 M 5.4,178.1 h -12 v -12 h 12 v 12 m 4.25,0 v -12 h 12 v 12 h -12 m 65,-28.7 h 12 v 12 h -12 v -12 m -4.25,12 h -12 v -12 h 12 v 12 m -16.25,4.7 v 12 h -12 v -12 h 12 m -12,-16.7 h 12 v 12 h -12 v -12 m 16.25,33.4 h 12 v 12 h -12 v -12 m -4.25,12 h -12 v -12 h 12 v 12 m 20.5,-12 h 12 v 12 h -12 v -12 m 0,-16.7 h 12 v 12 h -12 v -12 m -16.25,12 v -12 h 12 v 12 h -12 m 93.25,-66.8 h -12 v -12 h 12 v 12 M 135.4,116 v 12 h -12 v -12 h 12 m -12,-4.7 v -12 h 12 v 12 h -12 m 12,21.4 v 12 h -12 v -12 h 12 m 4.25,0 h 12 v 12 h -12 v -12 m 0,-4.7 v -12 h 12 v 12 h -12 M 102.9,111.3 h -12 v -12 h 12 v 12 m 4.25,-12 h 12 v 12 h -12 v -12 m 12,16.7 v 12 h -12 v -12 h 12 M 90.9,132.7 h 12 v 12 h -12 v -12 m 28.25,0 v 12 h -12 v -12 h 12 M 102.9,128 h -12 v -12 h 12 v 12 m 4.25,33.4 v -12 h 12 v 12 h -12 m -4.25,0 h -12 v -12 h 12 v 12 m 16.25,4.7 v 12 h -12 v -12 h 12 M 90.9,182.8 h 12 v 12 h -12 v -12 m 16.25,12 v -12 h 12 v 12 h -12 m -4.25,-16.7 h -12 v -12 h 12 v 12 m 48.75,-16.7 h -12 v -12 h 12 v 12 m -28.25,0 v -12 h 12 v 12 h -12 m 12,4.7 v 12 h -12 v -12 h 12 m 4.25,16.7 h 12 v 12 h -12 v -12 m -4.25,12 h -12 v -12 h 12 v 12 m 16.25,-16.7 h -12 v -12 h 12 v 12 M 5.4,11.1 h -12 v -12 h 12 v 12 m -130,-245.8 v 12 h -12 v -12 h 12 m -32.5,28.7 h -12 v -12 h 12 v 12 m 4.25,-12 h 12 v 12 h -12 v -12 m 16.25,0 h 12 v 12 h -12 v -12 m 12,16.7 v 12 h -12 v -12 h 12 m -32.5,-21.4 h -12 v -12 h 12 v 12 m 4.25,0 v -12 h 12 v 12 h -12 m 12,21.4 v 12 h -12 v -12 h 12 m 32.5,-33.4 v 12 h -12 v -12 h 12 m -12,16.7 h 12 v 12 h -12 v -12 m 12,16.7 v 12 h -12 v -12 h 12 m 4.25,-16.7 h 12 v 12 h -12 v -12 m 16.25,0 h 12 v 12 h -12 v -12 m 0,-16.7 h 12 v 12 h -12 v -12 m -16.25,12 v -12 h 12 v 12 h -12 m 12,21.4 v 12 h -12 v -12 h 12 m 48.75,-33.4 v 12 h -12 v -12 h 12 M -71.6,-218 h 12 v 12 h -12 v -12 m 16.25,0 h 12 v 12 h -12 v -12 m 12,16.7 v 12 h -12 v -12 h 12 m -28.25,-21.4 v -12 h 12 v 12 h -12 m 12,21.4 v 12 h -12 v -12 h 12 m 32.5,-33.4 v 12 h -12 v -12 h 12 m 0,33.4 v 12 h -12 v -12 h 12 m 4.25,-16.7 h 12 v 12 h -12 v -12 m -16.25,12 v -12 h 12 v 12 h -12 m 28.25,4.7 v 12 h -12 v -12 h 12 m 0,-33.4 v 12 h -12 v -12 h 12 m -65,33.4 v 12 h -12 v -12 h 12 m -195,-33.4 v 12 h -12 v -12 h 12 m 4.25,16.7 h 12 v 12 h -12 v -12 m -4.25,16.7 v 12 h -12 v -12 h 12 m -12,-4.7 v -12 h 12 v 12 h -12 m 32.5,-12 h 12 v 12 h -12 v -12 m -4.25,16.7 v 12 h -12 v -12 h 12 m 4.25,-33.4 h 12 v 12 h -12 v -12 m -16.25,0 h 12 v 12 h -12 v -12 m 60.75,0 v 12 h -12 v -12 h 12 m -28.25,16.7 h 12 v 12 h -12 v -12 m 28.25,16.7 v 12 h -12 v -12 h 12 m -12,-4.7 v -12 h 12 v 12 h -12 m -4.25,4.7 v 12 h -12 v -12 h 12 m 0,-21.4 h -12 v -12 h 12 v 12 m 32.5,-12 v 12 h -12 v -12 h 12 m 4.25,16.7 h 12 v 12 h -12 v -12 m -16.25,0 h 12 v 12 h -12 v -12 m 12,16.7 v 12 h -12 v -12 h 12 m 4.25,-21.4 v -12 h 12 v 12 h -12 m 12,21.4 v 12 h -12 v -12 h 12 m -65,0 v 12 h -12 v -12 h 12 m 48.75,16.7 v 12 h -12 v -12 h 12 m 4.25,16.7 h 12 v 12 h -12 v -12 m -16.25,0 h 12 v 12 h -12 v -12 m 12,16.7 v 12 h -12 v -12 h 12 m 20.5,-16.7 h 12 v 12 h -12 v -12 m 0,-16.7 h 12 v 12 h -12 v -12 m -16.25,12 v -12 h 12 v 12 h -12 m 12,21.4 v 12 h -12 v -12 h 12 m -32.5,-33.4 v 12 h -12 v -12 h 12 m -32.5,28.7 h -12 v -12 h 12 v 12 m 4.25,-12 h 12 v 12 h -12 v -12 m 16.25,0 h 12 v 12 h -12 v -12 m 12,16.7 v 12 h -12 v -12 h 12 m -32.5,-21.4 h -12 v -12 h 12 v 12 m 4.25,0 v -12 h 12 v 12 h -12 m 12,21.4 v 12 h -12 v -12 h 12 m 16.25,16.7 v 12 h -12 v -12 h 12 m -28.25,16.7 h 12 v 12 h -12 v -12 m -4.25,12 h -12 v -12 h 12 v 12 m 20.5,0 v -12 h 12 v 12 h -12 m 12,4.7 v 12 h -12 v -12 h 12 m -32.5,-21.4 h -12 v -12 h 12 v 12 m 16.25,21.4 v 12 h -12 v -12 h 12 m -12,-21.4 v -12 h 12 v 12 h -12 m 44.5,-12 v 12 h -12 v -12 h 12 m 4.25,16.7 h 12 v 12 h -12 v -12 m -16.25,12 v -12 h 12 v 12 h -12 m 12,4.7 v 12 h -12 v -12 h 12 m 20.5,-16.7 h 12 v 12 h -12 v -12 m -4.25,16.7 v 12 h -12 v -12 h 12 m 4.25,-33.4 h 12 v 12 h -12 v -12 m -16.25,0 h 12 v 12 h -12 v -12 m 16.25,-16.7 h 12 v 12 h -12 v -12 m -69.25,12 h -12 v -12 h 12 v 12 m -32.5,-45.4 v 12 h -12 v -12 h 12 m -12,16.7 h 12 v 12 h -12 v -12 m 16.25,0 h 12 v 12 h -12 v -12 m -4.25,16.7 v 12 h -12 v -12 h 12 m 16.25,0 v 12 h -12 v -12 h 12 m -12,-33.4 h 12 v 12 h -12 v -12 m -4.25,50.1 v 12 h -12 v -12 h 12 m -12,16.7 h 12 v 12 h -12 v -12 m 16.25,0 h 12 v 12 h -12 v -12 m -4.25,16.7 v 12 h -12 v -12 h 12 m 16.25,0 v 12 h -12 v -12 h 12 m -12,-21.4 v -12 h 12 v 12 h -12 m -4.25,38.1 v 12 h -12 v -12 h 12 m 4.25,16.7 h 12 v 12 h -12 v -12 m -4.25,16.7 v 12 h -12 v -12 h 12 m 0,-4.7 h -12 v -12 h 12 v 12 m 20.5,-12 h 12 v 12 h -12 v -12 m 0,-16.7 h 12 v 12 h -12 v -12 m -4.25,33.4 v 12 h -12 v -12 h 12 m -12,-21.4 v -12 h 12 v 12 h -12 m -4.25,38.1 v 12 h -12 v -12 h 12 m 0,33.4 v 12 h -12 v -12 h 12 m 4.25,-16.7 h 12 v 12 h -12 v -12 m -16.25,0 h 12 v 12 h -12 v -12 m 32.5,0 h 12 v 12 h -12 v -12 m 0,-16.7 h 12 v 12 h -12 v -12 m -4.25,33.4 v 12 h -12 v -12 h 12 m -12,-21.4 v -12 h 12 v 12 h -12 m 16.25,-28.7 h 12 v 12 h -12 v -12 m 60.75,-33.4 v 12 h -12 v -12 h 12 m -12,28.7 v -12 h 12 v 12 h -12 m 12,4.7 v 12 h -12 v -12 h 12 m 4.25,-16.7 h 12 v 12 h -12 v -12 m 16.25,0 h 12 v 12 h -12 v -12 m 0,-16.7 h 12 v 12 h -12 v -12 m -4.25,33.4 v 12 h -12 v -12 h 12 m -12,-21.4 v -12 h 12 v 12 h -12 m -20.5,-12 v 12 h -12 v -12 h 12 m -28.25,16.7 h 12 v 12 h -12 v -12 m 16.25,12 v -12 h 12 v 12 h -12 m 12,4.7 v 12 h -12 v -12 h 12 m -16.25,0 v 12 h -12 v -12 h 12 m -12,-21.4 v -12 h 12 v 12 h -12 m 28.25,38.1 v 12 h -12 v -12 h 12 m -28.25,16.7 h 12 v 12 h -12 v -12 m 28.25,16.7 v 12 h -12 v -12 h 12 m -12,-16.7 h 12 v 12 h -12 v -12 m -4.25,16.7 v 12 h -12 v -12 h 12 m -12,-21.4 v -12 h 12 v 12 h -12 m 44.5,-12 v 12 h -12 v -12 h 12 m -12,28.7 v -12 h 12 v 12 h -12 m 16.25,-12 h 12 v 12 h -12 v -12 m -4.25,16.7 v 12 h -12 v -12 h 12 m 20.5,-16.7 h 12 v 12 h -12 v -12 m -4.25,16.7 v 12 h -12 v -12 h 12 m 4.25,-33.4 h 12 v 12 h -12 v -12 m -4.25,12 h -12 v -12 h 12 v 12 m 4.25,-28.7 h 12 v 12 h -12 v -12 m 0,-50.1 h 12 v 12 h -12 v -12 m -81.25,0 h 12 v 12 h -12 v -12 m 12,100.2 v 12 h -12 v -12 h 12 M -27.1,-184.6 v 12 h -12 v -12 h 12 m 0,33.4 v 12 h -12 v -12 h 12 m 4.25,-16.7 h 12 v 12 h -12 v -12 m -16.25,12 v -12 h 12 v 12 h -12 m 28.25,4.7 v 12 h -12 v -12 h 12 m 0,-33.4 v 12 h -12 v -12 h 12 m -32.5,0 v 12 h -12 v -12 h 12 m -28.25,16.7 h 12 v 12 h -12 v -12 m -4.25,12 h -12 v -12 h 12 v 12 m 32.5,4.7 v 12 h -12 v -12 h 12 m -12,-4.7 v -12 h 12 v 12 h -12 m -4.25,4.7 v 12 h -12 v -12 h 12 m -16.25,-21.4 h -12 v -12 h 12 v 12 m 16.25,-12 v 12 h -12 v -12 h 12 m 16.25,50.1 v 12 h -12 v -12 h 12 m -32.5,28.7 h -12 v -12 h 12 v 12 m 4.25,-12 h 12 v 12 h -12 v -12 m 28.25,16.7 v 12 h -12 v -12 h 12 m 0,-16.7 v 12 h -12 v -12 h 12 m -16.25,16.7 v 12 h -12 v -12 h 12 m -16.25,-21.4 h -12 v -12 h 12 v 12 m 16.25,0 h -12 v -12 h 12 v 12 m 32.5,-12 v 12 h -12 v -12 h 12 m 0,33.4 v 12 h -12 v -12 h 12 m 0,-4.7 h -12 v -12 h 12 v 12 m 4.25,-12 h 12 v 12 h -12 v -12 m 12,16.7 v 12 h -12 v -12 h 12 m 0,-21.4 h -12 v -12 h 12 v 12 m -65,-16.7 h -12 v -12 h 12 v 12 m -32.5,-45.4 v 12 h -12 v -12 h 12 m -12,16.7 h 12 v 12 h -12 v -12 m 16.25,0 h 12 v 12 h -12 v -12 m -4.25,16.7 v 12 h -12 v -12 h 12 m 16.25,0 v 12 h -12 v -12 h 12 m -12,-33.4 h 12 v 12 h -12 v -12 m -20.5,0 v 12 h -12 v -12 h 12 m -28.25,16.7 h 12 v 12 h -12 v -12 m 16.25,0 h 12 v 12 h -12 v -12 m 12,16.7 v 12 h -12 v -12 h 12 m -16.25,0 v 12 h -12 v -12 h 12 m -12,-33.4 h 12 v 12 h -12 v -12 m 28.25,50.1 v 12 h -12 v -12 h 12 m -28.25,16.7 h 12 v 12 h -12 v -12 m 16.25,12 v -12 h 12 v 12 h -12 m 12,4.7 v 12 h -12 v -12 h 12 m -16.25,0 v 12 h -12 v -12 h 12 m -12,-21.4 v -12 h 12 v 12 h -12 m 44.5,-12 v 12 h -12 v -12 h 12 m 4.25,16.7 h 12 v 12 h -12 v -12 m -4.25,16.7 v 12 h -12 v -12 h 12 m 0,-16.7 v 12 h -12 v -12 h 12 m 16.25,16.7 v 12 h -12 v -12 h 12 m -12,-21.4 v -12 h 12 v 12 h -12 m -4.25,38.1 v 12 h -12 v -12 h 12 m 4.25,16.7 h 12 v 12 h -12 v -12 m -4.25,16.7 v 12 h -12 v -12 h 12 m 0,-4.7 h -12 v -12 h 12 v 12 m 20.5,-12 h 12 v 12 h -12 v -12 m 0,-16.7 h 12 v 12 h -12 v -12 M -92.1,-51 v 12 h -12 v -12 h 12 m -12,-21.4 v -12 h 12 v 12 h -12 m -20.5,-12 v 12 h -12 v -12 h 12 m -28.25,16.7 h 12 v 12 h -12 v -12 m 16.25,12 v -12 h 12 v 12 h -12 m 12,4.7 v 12 h -12 v -12 h 12 m -16.25,0 v 12 h -12 v -12 h 12 m -12,-21.4 v -12 h 12 v 12 h -12 m 28.25,38.1 v 12 h -12 v -12 h 12 m -28.25,16.7 h 12 v 12 h -12 v -12 m 28.25,16.7 v 12 h -12 v -12 h 12 m -12,-4.7 v -12 h 12 v 12 h -12 m -4.25,4.7 v 12 h -12 v -12 h 12 m 0,-21.4 h -12 v -12 h 12 v 12 m 32.5,-12 v 12 h -12 v -12 h 12 m 4.25,16.7 h 12 v 12 h -12 v -12 m -16.25,12 v -12 h 12 v 12 h -12 m 12,4.7 v 12 h -12 v -12 h 12 m 20.5,-16.7 h 12 v 12 h -12 v -12 m -4.25,16.7 v 12 h -12 v -12 h 12 m 4.25,-33.4 h 12 v 12 h -12 v -12 m -16.25,0 h 12 v 12 h -12 v -12 M -87.85,-51 h 12 v 12 h -12 v -12 m 60.75,-33.4 v 12 h -12 v -12 h 12 m -12,28.7 v -12 h 12 v 12 h -12 m 12,4.7 v 12 h -12 v -12 h 12 m 4.25,-16.7 h 12 v 12 h -12 v -12 m 12,16.7 v 12 h -12 v -12 h 12 m 0,-33.4 v 12 h -12 v -12 h 12 m -32.5,0 v 12 h -12 v -12 h 12 m -28.25,16.7 h 12 v 12 h -12 v -12 m 28.25,16.7 v 12 h -12 v -12 h 12 m 0,-4.7 h -12 v -12 h 12 v 12 M -59.6,-51 v 12 h -12 v -12 h 12 m 0,-33.4 v 12 h -12 v -12 h 12 m 16.25,50.1 v 12 h -12 v -12 h 12 m -28.25,16.7 h 12 v 12 h -12 v -12 m 16.25,0 h 12 v 12 h -12 v -12 m 12,16.7 v 12 h -12 v -12 h 12 m -16.25,0 v 12 h -12 v -12 h 12 m -12,-33.4 h 12 v 12 h -12 v -12 m 44.5,0 v 12 h -12 v -12 h 12 m 0,33.4 v 12 h -12 v -12 h 12 m -12,-16.7 h 12 v 12 h -12 v -12 m 16.25,0 h 12 v 12 h -12 v -12 m 12,16.7 v 12 h -12 v -12 h 12 m -12,-21.4 v -12 h 12 v 12 h -12 m -65,-78.8 h 12 v 12 h -12 v -12 m 12,100.2 v 12 h -12 v -12 h 12 m -93.25,-200.4 h 12 v 12 h -12 v -12 m 12,200.4 v 12 h -12 v -12 h 12 m 130,16.7 v 12 h -12 v -12 h 12 m 0,33.4 v 12 h -12 v -12 h 12 m 4.25,-16.7 h 12 v 12 h -12 v -12 m -16.25,0 h 12 v 12 h -12 v -12 m 16.25,-4.7 v -12 h 12 v 12 h -12 m 12,21.4 v 12 h -12 v -12 h 12 m -32.5,-33.4 v 12 h -12 v -12 h 12 M -71.6,32.5 h 12 v 12 h -12 v -12 m -4.25,12 h -12 v -12 h 12 v 12 m 20.5,-12 h 12 v 12 h -12 v -12 m 12,16.7 v 12 h -12 v -12 h 12 m -32.5,-21.4 h -12 v -12 h 12 v 12 m 4.25,0 v -12 h 12 v 12 h -12 m 12,21.4 v 12 h -12 v -12 h 12 m 16.25,16.7 v 12 h -12 v -12 h 12 m -32.5,28.7 h -12 v -12 h 12 v 12 m 4.25,-12 h 12 v 12 h -12 v -12 m 16.25,0 h 12 v 12 h -12 v -12 m -20.5,-4.7 h -12 v -12 h 12 v 12 m 16.25,-12 v 12 h -12 v -12 h 12 m 32.5,0 v 12 h -12 v -12 h 12 m -12,16.7 h 12 v 12 h -12 v -12 m 16.25,0 h 12 v 12 h -12 v -12 m 12,-4.7 h -12 v -12 h 12 v 12 m -65,-16.7 h -12 v -12 h 12 v 12 m -32.5,-45.4 v 12 h -12 v -12 h 12 m -12,16.7 h 12 v 12 h -12 v -12 m 16.25,0 h 12 v 12 h -12 v -12 m -4.25,16.7 v 12 h -12 v -12 h 12 m 16.25,0 v 12 h -12 v -12 h 12 m -12,-33.4 h 12 v 12 h -12 v -12 m -20.5,0 v 12 h -12 v -12 h 12 m -32.5,28.7 h -12 v -12 h 12 v 12 m 4.25,-12 h 12 v 12 h -12 v -12 m 16.25,0 h 12 v 12 h -12 v -12 m 12,16.7 v 12 h -12 v -12 h 12 m -32.5,-21.4 h -12 v -12 h 12 v 12 m 4.25,0 v -12 h 12 v 12 h -12 m 12,21.4 v 12 h -12 v -12 h 12 m 16.25,16.7 v 12 h -12 v -12 h 12 m -32.5,28.7 h -12 v -12 h 12 v 12 m 4.25,-12 h 12 v 12 h -12 v -12 m 16.25,12 v -12 h 12 v 12 h -12 m -16.25,-28.7 h 12 v 12 h -12 v -12 m -4.25,12 h -12 v -12 h 12 v 12 m 48.75,-12 v 12 h -12 v -12 h 12 m 4.25,16.7 h 12 v 12 h -12 v -12 m -16.25,12 v -12 h 12 v 12 h -12 M -92.1,77.9 h -12 v -12 h 12 v 12 m -65,-16.7 h -12 v -12 h 12 v 12 m 69.25,38.1 h 12 v 12 h -12 v -12 m -4.25,12 h -12 v -12 h 12 v 12 m -16.25,4.7 v 12 h -12 v -12 h 12 m -12,-16.7 h 12 v 12 h -12 v -12 m 12,33.4 v 12 h -12 v -12 h 12 m 4.25,0 h 12 v 12 h -12 v -12 m 16.25,0 h 12 v 12 h -12 v -12 m 0,-16.7 h 12 v 12 h -12 v -12 m -4.25,0 v 12 h -12 v -12 h 12 m -48.75,-4.7 h -12 v -12 h 12 v 12 m 4.25,-12 h 12 v 12 h -12 v -12 m 12,16.7 v 12 h -12 v -12 h 12 m -32.5,-4.7 h -12 v -12 h 12 v 12 m 0,33.4 h -12 v -12 h 12 v 12 m 4.25,-12 h 12 v 12 h -12 v -12 m 28.25,0 v 12 h -12 v -12 h 12 m -32.5,-4.7 h -12 v -12 h 12 v 12 m 16.25,0 h -12 v -12 h 12 v 12 m 4.25,33.4 v -12 h 12 v 12 h -12 m -4.25,0 h -12 v -12 h 12 v 12 m 16.25,4.7 v 12 h -12 v -12 h 12 m -32.5,-4.7 h -12 v -12 h 12 v 12 m 4.25,21.4 h 12 v 12 h -12 v -12 m -4.25,12 h -12 v -12 h 12 v 12 m 32.5,0 h -12 v -12 h 12 v 12 m -32.5,-16.7 h -12 v -12 h 12 v 12 m 4.25,0 v -12 h 12 v 12 h -12 m 60.75,-16.7 h -12 v -12 h 12 v 12 m 4.25,-12 h 12 v 12 h -12 v -12 m -32.5,12 v -12 h 12 v 12 h -12 m 12,4.7 v 12 h -12 v -12 h 12 m 0,16.7 v 12 h -12 v -12 h 12 m 4.25,0 h 12 v 12 h -12 v -12 m 16.25,0 h 12 v 12 h -12 v -12 m 0,-16.7 h 12 v 12 h -12 v -12 m -16.25,12 v -12 h 12 v 12 h -12 m 93.25,-66.8 h -12 v -12 h 12 v 12 m -28.25,-12 h 12 v 12 h -12 v -12 m 12,16.7 v 12 h -12 v -12 h 12 m 0,16.7 v 12 h -12 v -12 h 12 m 4.25,0 h 12 v 12 h -12 v -12 m 12,-4.7 h -12 v -12 h 12 v 12 M -59.6,111.3 h -12 v -12 h 12 v 12 m 4.25,-12 h 12 v 12 h -12 v -12 m 12,16.7 v 12 h -12 v -12 h 12 m -28.25,16.7 h 12 v 12 h -12 v -12 m 28.25,0 v 12 h -12 v -12 h 12 M -59.6,128 h -12 v -12 h 12 v 12 m 4.25,33.4 v -12 h 12 v 12 h -12 m -4.25,0 h -12 v -12 h 12 v 12 m 16.25,4.7 v 12 h -12 v -12 h 12 m -28.25,16.7 h 12 v 12 h -12 v -12 m 28.25,0 v 12 h -12 v -12 h 12 M -59.6,166.1 v 12 h -12 v -12 h 12 m 48.75,-4.7 h -12 v -12 h 12 v 12 m -28.25,0 v -12 h 12 v 12 h -12 m 12,4.7 v 12 h -12 v -12 h 12 m 4.25,16.7 h 12 v 12 h -12 v -12 m -4.25,0 v 12 h -12 v -12 h 12 m 16.25,-4.7 h -12 v -12 h 12 v 12 M -189.6,15.8 v 12 h -12 v -12 h 12 m 4.25,16.7 h 12 v 12 h -12 v -12 m -4.25,16.7 v 12 h -12 v -12 h 12 m 0,-16.7 v 12 h -12 v -12 h 12 m 4.25,-4.7 v -12 h 12 v 12 h -12 m 12,21.4 v 12 h -12 v -12 h 12 m -32.5,-33.4 v 12 h -12 v -12 h 12 m -28.25,16.7 h 12 v 12 h -12 v -12 m -4.25,12 h -12 v -12 h 12 v 12 m 20.5,-12 h 12 v 12 h -12 v -12 m 12,16.7 v 12 h -12 v -12 h 12 m -32.5,-21.4 h -12 v -12 h 12 v 12 m 4.25,0 v -12 h 12 v 12 h -12 m 12,21.4 v 12 h -12 v -12 h 12 m 16.25,16.7 v 12 h -12 v -12 h 12 m -32.5,28.7 h -12 v -12 h 12 v 12 m 4.25,-12 h 12 v 12 h -12 v -12 m 16.25,0 h 12 v 12 h -12 v -12 m -16.25,-4.7 v -12 h 12 v 12 h -12 m -4.25,0 h -12 v -12 h 12 v 12 m 48.75,-12 v 12 h -12 v -12 h 12 m 4.25,16.7 h 12 v 12 h -12 v -12 m -16.25,12 v -12 h 12 v 12 h -12 m 28.25,-16.7 h -12 v -12 h 12 v 12 m -65,-16.7 h -12 v -12 h 12 v 12 m -32.5,-45.4 v 12 h -12 v -12 h 12 m -12,16.7 h 12 v 12 h -12 v -12 m 16.25,0 h 12 v 12 h -12 v -12 m -4.25,16.7 v 12 h -12 v -12 h 12 m 16.25,0 v 12 h -12 v -12 h 12 m -12,-33.4 h 12 v 12 h -12 v -12 m -4.25,50.1 v 12 h -12 v -12 h 12 m -12,16.7 h 12 v 12 h -12 v -12 m 16.25,0 h 12 v 12 h -12 v -12 m 12,-4.7 h -12 v -12 h 12 v 12 m 0,33.4 h -12 v -12 h 12 v 12 m 4.25,-12 h 12 v 12 h -12 v -12 m -20.5,16.7 v 12 h -12 v -12 h 12 m -12,-16.7 h 12 v 12 h -12 v -12 m 12,33.4 v 12 h -12 v -12 h 12 m 4.25,0 h 12 v 12 h -12 v -12 m 16.25,0 h 12 v 12 h -12 v -12 m 0,-16.7 h 12 v 12 h -12 v -12 m -16.25,12 v -12 h 12 v 12 h -12 m 16.25,21.4 h 12 v 12 h -12 v -12 m -4.25,12 h -12 v -12 h 12 v 12 m -16.25,4.7 v 12 h -12 v -12 h 12 m -12,-4.7 v -12 h 12 v 12 h -12 m 16.25,21.4 h 12 v 12 h -12 v -12 m -4.25,12 h -12 v -12 h 12 v 12 m 20.5,-12 h 12 v 12 h -12 v -12 m 0,-16.7 h 12 v 12 h -12 v -12 m -16.25,12 v -12 h 12 v 12 h -12 m 93.25,-66.8 h -12 v -12 h 12 v 12 m -16.25,4.7 v 12 h -12 v -12 h 12 m 0,-16.7 v 12 h -12 v -12 h 12 m 4.25,33.4 h 12 v 12 h -12 v -12 m -4.25,0 v 12 h -12 v -12 h 12 m 4.25,-4.7 v -12 h 12 v 12 h -12 m -36.75,-16.7 h -12 v -12 h 12 v 12 m 4.25,-12 h 12 v 12 h -12 v -12 m 12,16.7 v 12 h -12 v -12 h 12 m -28.25,16.7 h 12 v 12 h -12 v -12 m 28.25,0 v 12 h -12 v -12 h 12 M -222.1,128 h -12 v -12 h 12 v 12 m 4.25,33.4 v -12 h 12 v 12 h -12 m -4.25,0 h -12 v -12 h 12 v 12 m 16.25,4.7 v 12 h -12 v -12 h 12 m -28.25,16.7 h 12 v 12 h -12 v -12 m 28.25,12 h -12 v -12 h 12 v 12 m -16.25,-16.7 h -12 v -12 h 12 v 12 m 48.75,-16.7 h -12 v -12 h 12 v 12 m -28.25,0 v -12 h 12 v 12 h -12 m 12,4.7 v 12 h -12 v -12 h 12 m 0,28.7 h -12 v -12 h 12 v 12 m 4.25,-12 h 12 v 12 h -12 v -12 m 12,-4.7 h -12 v -12 h 12 v 12"
   id="path44"
   inkscape:connector-curvature="0" />
</g>
</svg>