<?xml version="1.0" encoding="UTF-8" standalone="no"?>
<svg
   xmlns:dc="http://purl.org/dc/elements/1.1/"
   xmlns:cc="http://creativecommons.org/ns#"
   xmlns:rdf="http://www.w3.org/1999/02/22-rdf-syntax-ns#"
   xmlns:svg="http://www.w3.org/2000/svg"
   xmlns="http://www.w3.org/2000/svg"
   xmlns:sodipodi="http://sodipodi.sourceforge.net/DTD/sodipodi-0.dtd"
   xmlns:inkscape="http://www.inkscape.org/namespaces/inkscape"
   version="1.1"
   id="Layer_1"
   width="403px"
   height="376px"
   xml:space="preserve"
   sodipodi:docname="shape27.svg"
   inkscape:version="0.92.4 (5da689c313, 2019-01-14)"><metadata
   id="metadata12"><rdf:RDF><cc:Work
       rdf:about=""><dc:format>image/svg+xml</dc:format><dc:type
         rdf:resource="http://purl.org/dc/dcmitype/StillImage" /></cc:Work></rdf:RDF></metadata><defs
   id="defs10" /><sodipodi:namedview
   pagecolor="#ffffff"
   bordercolor="#666666"
   borderopacity="1"
   objecttolerance="10"
   gridtolerance="10"
   guidetolerance="10"
   inkscape:pageopacity="0"
   inkscape:pageshadow="2"
   inkscape:window-width="1920"
   inkscape:window-height="1017"
   id="namedview8"
   showgrid="false"
   inkscape:zoom="1.7752894"
   inkscape:cx="194.80438"
   inkscape:cy="172.62942"
   inkscape:window-x="-8"
   inkscape:window-y="-8"
   inkscape:window-maximized="1"
   inkscape:current-layer="Layer_1"
   viewBox="0 0 60 55" preserveAspectRatio="none" />
<g
   id="0"
   transform="matrix(1, 0, 0, 1, 199.35, 187.2)">
<path
   style="fill:#000000;fill-opacity:1"
   d="M20.5,-171.2Q-53.5 -171.2 -105.85 -120.9Q-158.2 -70.65 -158.2 0.5Q-158.2 71.65 -105.85 121.95Q-53.5 172.2 20.5 172.25Q94.55 172.2 146.9 121.95Q178.2 91.85 190.75 54.3Q177.15 98.15 140.05 132.85Q81.95 188.1 -0.35 188.1Q-82.65 188.1 -141.25 132.85Q-199.4 78 -199.35 0.4Q-199.4 -77.2 -141.25 -132.45Q-82.65 -187.25 -0.35 -187.2Q81.95 -187.25 140.05 -132.45Q178.5 -96.2 191.75 -50.3Q179.45 -89.65 146.9 -120.9Q94.55 -171.2 20.5 -171.2"
   id="path2" />
<path
   style="fill:#070201;fill-opacity:1"
   d="M149.75,-123.7Q183 -91.7 195.6 -51.45Q203.2 -27 203.2 0.55Q203.2 29.75 194.55 55.6Q181.7 94 149.75 124.8Q96.2 176.25 20.55 176.25Q-55.15 176.25 -108.6 124.8Q-162.15 73.3 -162.15 0.55Q-162.15 -72.25 -108.6 -123.7Q-55.15 -175.2 20.55 -175.15Q96.2 -175.2 149.75 -123.7M20.6,-171.15Q-53.45 -171.2 -105.75 -120.9Q-158.1 -70.6 -158.1 0.55Q-158.1 71.65 -105.75 121.95Q-53.45 172.25 20.6 172.25Q94.6 172.25 147 121.95Q178.25 91.85 190.85 54.3Q199.3 29.1 199.3 0.55Q199.3 -26.35 191.85 -50.25Q179.55 -89.6 147 -120.9Q94.6 -171.2 20.6 -171.15"
   id="path4" />
</g>
<path
   style="fill:#e0a819;fill-opacity:1;stroke-width:0.56328845"
   d="m 208.32331,359.06817 c -17.19798,-1.49188 -24.69373,-2.68308 -37.11574,-5.89831 C 134.93558,343.78145 101.72684,321.72957 76.678089,290.39865 57.295139,266.15449 46.029605,238.98356 42.463153,207.87689 41.455744,199.09024 41.296522,178.86273 42.16544,170.05542 46.097845,130.19675 62.816647,96.537417 93.469914,66.76607 118.88012,42.086939 148.39019,26.362103 181.61659,19.795937 c 13.67575,-2.702586 18.80935,-3.12148 38.25413,-3.12148 19.82745,0 24.92323,0.435681 39.34162,3.363648 36.50045,7.412211 69.85394,26.736006 95.98593,55.610757 21.32053,23.558283 34.67061,49.771378 40.37601,79.278908 2.20084,11.38241 2.83726,19.01866 2.79331,33.51567 -0.0426,14.06123 -0.81964,22.57597 -3.08417,33.7973 -6.43856,31.90472 -23.44098,62.11649 -48.55605,86.27973 -29.63132,28.50833 -63.49273,44.69171 -103.48018,49.45628 -7.23819,0.86244 -29.53198,1.55915 -34.92388,1.09142 z"
   id="path4536"
   inkscape:connector-curvature="0" /><path
   style="fill:#e0a819;fill-opacity:1;stroke-width:0.56328845"
   d="M 198.90046,358.52451 C 166.31253,354.96859 137.92369,344.05586 112.66893,325.37693 96.169894,313.1739 80.10306,296.65733 69.053967,280.5411 49.545533,252.08605 40.030596,218.49013 41.215482,182.24726 42.059005,156.44589 47.116618,135.80534 57.947254,113.96346 66.106991,97.507913 76.563305,83.248187 91.120229,68.724038 121.4946,38.418054 157.36044,21.214466 199.31069,16.828859 c 8.92425,-0.932968 33.17591,-0.915307 41.68335,0.03036 35.0856,3.900016 65.4123,16.370419 92.66095,38.10238 8.23538,6.568063 24.13883,22.638059 30.30228,30.619597 17.51537,22.682064 28.08109,46.259904 32.46398,72.444664 3.13986,18.75855 3.13521,40.89514 -0.0125,59.42693 -6.84813,40.31789 -29.22207,76.45464 -64.72532,104.53958 -26.10785,20.65268 -56.68324,32.86515 -91.53437,36.56081 -9.74128,1.03297 -31.65892,1.01774 -41.24865,-0.0287 z"
   id="path4538"
   inkscape:connector-curvature="0" /></svg>