<?xml version="1.0" encoding="UTF-8" standalone="no"?>
<svg
   xmlns:dc="http://purl.org/dc/elements/1.1/"
   xmlns:cc="http://creativecommons.org/ns#"
   xmlns:rdf="http://www.w3.org/1999/02/22-rdf-syntax-ns#"
   xmlns:svg="http://www.w3.org/2000/svg"
   xmlns="http://www.w3.org/2000/svg"
   xmlns:xlink="http://www.w3.org/1999/xlink"
   xmlns:sodipodi="http://sodipodi.sourceforge.net/DTD/sodipodi-0.dtd"
   xmlns:inkscape="http://www.inkscape.org/namespaces/inkscape"
   version="1.1"
   id="Layer_1"
   width="1960"
   height="1080"
   xml:space="preserve"
   sodipodi:docname="shape1-1.svg"
   inkscape:version="0.92.4 (5da689c313, 2019-01-14)"><metadata
   id="metadata52"><rdf:RDF><cc:Work
       rdf:about=""><dc:format>image/svg+xml</dc:format><dc:type
         rdf:resource="http://purl.org/dc/dcmitype/StillImage" /><dc:title></dc:title></cc:Work></rdf:RDF></metadata><defs
   id="defs50"><radialGradient
     fy="0"
     fx="0"
     r="819.20001"
     cy="0"
     cx="0"
     spreadMethod="pad"
     gradientTransform="matrix(0.320786,0.121979,-0.0666962,0.175415,16,-23)"
     gradientUnits="userSpaceOnUse"
     id="RadialGradID_2"
     xlink:href="#RadialGradID_1">
<stop
   id="stop5672"
   style="stop-color:#928F8F;stop-opacity:1"
   offset="0" />
<stop
   id="stop5674"
   style="stop-color:#717070;stop-opacity:0"
   offset="1" />
</radialGradient><radialGradient
     inkscape:collect="always"
     xlink:href="#RadialGradID_2-2"
     id="radialGradient5681"
     cx="7.5250001"
     cy="-19.950001"
     fx="7.5250001"
     fy="-19.950001"
     r="290.375"
     gradientTransform="matrix(1,0,0,0.73956091,73.148006,-84.059071)"
     gradientUnits="userSpaceOnUse" /><radialGradient
     inkscape:collect="always"
     xlink:href="#RadialGradID_1"
     id="radialGradient5685"
     gradientUnits="userSpaceOnUse"
     gradientTransform="matrix(1.5352462,0,0,1.143857,919.30229,512.96988)"
     cx="0"
     cy="0"
     fx="0"
     fy="0"
     r="819.20001"
     spreadMethod="pad" /><radialGradient
     inkscape:collect="always"
     xlink:href="#RadialGradID_1"
     id="radialGradient5688"
     gradientUnits="userSpaceOnUse"
     gradientTransform="matrix(0.45489502,0,0,0.45489499,69.866447,-103.84966)"
     cx="0"
     cy="0"
     fx="0"
     fy="0"
     r="819.20001"
     spreadMethod="pad" /></defs><sodipodi:namedview
   pagecolor="#ffffff"
   bordercolor="#666666"
   borderopacity="1"
   objecttolerance="10"
   gridtolerance="10"
   guidetolerance="10"
   inkscape:pageopacity="0"
   inkscape:pageshadow="2"
   inkscape:window-width="1920"
   inkscape:window-height="1017"
   id="namedview48"
   showgrid="false"
   inkscape:snap-grids="false"
   inkscape:zoom="0.34944231"
   inkscape:cx="1276.1814"
   inkscape:cy="324.2255"
   inkscape:window-x="-8"
   inkscape:window-y="-8"
   inkscape:window-maximized="1"
   inkscape:current-layer="0" />
<g
   id="0"
   transform="matrix(3.3749462,0,0,2.5145518,706.66008,790.32778)">
<radialGradient
   id="RadialGradID_1"
   gradientUnits="userSpaceOnUse"
   gradientTransform="matrix(0.454895,0,0,0.454895,-3,-25)"
   spreadMethod="pad"
   cx="0"
   cy="0"
   r="819.20001"
   fx="0"
   fy="0">
<stop
   offset="0"
   style="stop-color:#928F8F;stop-opacity:1"
   id="stop32" />
<stop
   offset="1"
   style="stop-color:#717070;stop-opacity:0"
   id="stop34" />
</radialGradient>
<path
   style="fill:url(#radialGradient5688);stroke-width:1"
   d="m 66.266404,-113.14988 v 12.00046 h 12.000191 v -12.00046 z"
   id="path37"
   inkscape:connector-curvature="0" />
<radialGradient
   id="RadialGradID_2-2"
   gradientUnits="userSpaceOnUse"
   gradientTransform="matrix(0.320786,0.121979,-0.0666962,0.175415,16,-23)"
   spreadMethod="pad"
   cx="0"
   cy="0"
   r="819.20001"
   fx="0"
   fy="0"
   fr="0">
<stop
   offset="0"
   style="stop-color:#928F8F;stop-opacity:1"
   id="stop39" />
<stop
   offset="1"
   style="stop-color:#717070;stop-opacity:0"
   id="stop41" />
</radialGradient>
<path
   style="fill:url(#radialGradient5681);fill-opacity:1;fill-rule:nonzero"
   d="m 273.54799,-313.56332 v 12 h -12 v -12 h 12 m -32.5,28.7 h -12 v -12 h 12 v 12 m 4.25,-12 h 12 v 12 h -12 v -12 m 28.25,16.7 v 12 h -12 v -12 h 12 m -12,-16.7 h 12 v 12 h -12 v -12 m -20.5,-4.7 h -12 v -12 h 12 v 12 m 4.25,0 v -12 h 12 v 12 h -12 m 12,21.4 v 12 h -12 v -12 h 12 m 32.5,-33.4 v 12 h -12 v -12 h 12 m -12,16.7 h 12 v 12 h -12 v -12 m 16.25,0 h 12 v 12 h -12 v -12 m -4.25,16.7 v 12 h -12 v -12 h 12 m 20.5,-16.7 h 12 v 12 h -12 v -12 m 0,-16.7 h 12 v 12 h -12 v -12 m -16.25,12 v -12 h 12 v 12 h -12 m 12,21.4 v 12 h -12 v -12 h 12 m 48.75,-33.4 v 12 h -12 v -12 h 12 m -28.25,16.7 h 12 v 12 h -12 v -12 m 16.25,0 h 12 v 12 h -12 v -12 m 12,16.7 v 12 h -12 v -12 h 12 m -28.25,-21.4 v -12 h 12 v 12 h -12 m 12,21.4 v 12 h -12 v -12 h 12 m 32.5,-33.4 v 12 h -12 v -12 h 12 m -12,28.7 v -12 h 12 v 12 h -12 m 12,4.7 v 12 h -12 v -12 h 12 m -48.75,0 v 12 h -12 v -12 h 12 m -211.24999,-33.4 v 12 H 99.048005 v -12 H 111.048 m -28.249994,16.7 h 12 v 12 h -12 v -12 m -4.25,12 h -12 v -12 h 12 v 12 m 20.499999,-12 H 111.048 v 12 H 99.048005 v -12 m 11.999995,16.7 v 12 H 99.048005 v -12 H 111.048 m -32.499994,-21.4 h -12 v -12 h 12 v 12 m 4.25,0 v -12 h 12 v 12 h -12 m 12,21.4 v 12 h -12 v -12 h 12 m 32.499994,-33.4 v 12 h -12 v -12 h 12 m -12,16.7 h 12 v 12 h -12 v -12 m 16.25,0 h 12 v 12 h -12 v -12 m -4.25,16.7 v 12 h -12 v -12 h 12 m 20.49999,-16.7 h 12 v 12 h -12 v -12 m 0,-16.7 h 12 v 12 h -12 v -12 m -16.24999,12 v -12 h 12 v 12 h -12 m 12,21.4 v 12 h -12 v -12 h 12 m 48.74999,-33.4 v 12 h -12 v -12 h 12 m -28.25,16.7 h 12 v 12 h -12 v -12 m 16.25,0 h 12 v 12 h -12 v -12 m 12,16.7 v 12 h -12 v -12 h 12 m -28.25,-21.4 v -12 h 12 v 12 h -12 m 12,21.4 v 12 h -12 v -12 h 12 m 32.5,-33.4 v 12 h -12 v -12 h 12 m 0,33.4 v 12 h -12 v -12 h 12 m 4.25,-16.7 h 12 v 12 h -12 v -12 m -4.25,12 h -12 v -12 h 12 v 12 m 16.25,4.7 v 12 h -12 v -12 h 12 m 0,-21.4 h -12 v -12 h 12 v 12 m -65,21.4 v 12 h -12 v -12 h 12 m 48.75,16.7 v 12 h -12 v -12 h 12 m 0,33.4 v 12 h -12 v -12 h 12 m 4.25,-16.7 h 12 v 12 h -12 v -12 m -16.25,12 v -12 h 12 v 12 h -12 m 32.5,-12 h 12 v 12 h -12 v -12 m -4.25,16.7 v 12 h -12 v -12 h 12 m 0,-33.4 v 12 h -12 v -12 h 12 m 4.25,0 h 12 v 12 h -12 v -12 m -36.75,0 v 12 h -12 v -12 h 12 m -28.25,16.7 h 12 v 12 h -12 v -12 m -4.25,12 h -12 v -12 h 12 v 12 m 32.5,4.7 v 12 h -12 v -12 h 12 m 0,-16.7 v 12 h -12 v -12 h 12 m -16.25,16.7 v 12 h -12 v -12 h 12 m -16.25,-21.4 h -12 v -12 h 12 v 12 m 16.25,-12 v 12 h -12 v -12 h 12 m 16.25,50.1 v 12 h -12 v -12 h 12 m -32.5,28.7 h -12 v -12 h 12 v 12 m 4.25,-12 h 12 v 12 h -12 v -12 m 28.25,16.7 v 12 h -12 v -12 h 12 m -12,-16.7 h 12 v 12 h -12 v -12 m -4.25,16.7 v 12 h -12 v -12 h 12 m -16.25,-21.4 h -12 v -12 h 12 v 12 m 16.25,-12 v 12 h -12 v -12 h 12 m 32.5,0 v 12 h -12 v -12 h 12 m 0,33.4 v 12 h -12 v -12 h 12 m 0,-4.7 h -12 v -12 h 12 v 12 m 4.25,-12 h 12 v 12 h -12 v -12 m 16.25,0 h 12 v 12 h -12 v -12 m -4.25,16.7 v 12 h -12 v -12 h 12 m 4.25,-33.4 h 12 v 12 h -12 v -12 m -4.25,12 h -12 v -12 h 12 v 12 m -65,-16.7 h -12 v -12 h 12 v 12 m 69.25,-12 h 12 v 12 h -12 v -12 m -101.74999,-33.4 v 12 h -12 v -12 h 12 m 4.25,16.7 h 12 v 12 h -12 v -12 m -16.25,12 v -12 h 12 v 12 h -12 m 12,4.7 v 12 h -12 v -12 h 12 m 16.25,0 v 12 h -12 v -12 h 12 m 0,-33.4 v 12 h -12 v -12 h 12 m -32.5,0 v 12 H 99.048005 v -12 H 111.048 m -32.499994,28.7 h -12 v -12 h 12 v 12 m 4.25,-12 h 12 v 12 h -12 v -12 m 28.249994,16.7 v 12 H 99.048005 v -12 H 111.048 m 0,-4.7 H 99.048005 v -12 H 111.048 v 12 m -16.249994,4.7 v 12 h -12 v -12 h 12 m -16.25,-21.4 h -12 v -12 h 12 v 12 m 16.25,0 h -12 v -12 h 12 v 12 m 16.249994,38.1 v 12 H 99.048005 v -12 H 111.048 m -28.249994,16.7 h 12 v 12 h -12 v -12 m -4.25,12 h -12 v -12 h 12 v 12 m 32.499994,4.7 v 12 H 99.048005 v -12 H 111.048 m 0,-16.7 v 12 H 99.048005 v -12 H 111.048 m -16.249994,16.7 v 12 h -12 v -12 h 12 m -16.25,-21.4 h -12 v -12 h 12 v 12 m 16.25,-12 v 12 h -12 v -12 h 12 m 32.499994,0 v 12 h -12 v -12 h 12 m 0,33.4 v 12 h -12 v -12 h 12 m 0,-4.7 h -12 v -12 h 12 v 12 m 4.25,-12 h 12 v 12 h -12 v -12 m 12,16.7 v 12 h -12 v -12 h 12 m 0,-21.4 h -12 v -12 h 12 v 12 m -64.999994,-16.7 h -12 v -12 h 12 v 12 m 48.749994,54.8 v 12 h -12 v -12 h 12 m -12,28.70001 v -12 h 12 v 12 h -12 m 12,4.7 v 12 h -12 v -12 h 12 m 4.25,-16.7 h 12 v 12 h -12 v -12 m 16.24999,0 h 12 v 12 h -12 v -12 m -4.24999,16.7 v 12 h -12 v -12 h 12 m 0,-33.40001 v 12 h -12 v -12 h 12 m 4.24999,0 h 12 v 12 h -12 v -12 m -36.74999,0 v 12 H 99.048005 v -12 H 111.048 m -32.499994,28.70001 h -12 v -12 h 12 v 12 m 4.25,-12 h 12 v 12 h -12 v -12 m 28.249994,16.7 v 12 H 99.048005 v -12 H 111.048 m -11.999995,-4.7 v -12 H 111.048 v 12 H 99.048005 m -4.249999,4.7 v 12 h -12 v -12 h 12 m -16.25,-21.40001 h -12 v -12 h 12 v 12 m 16.25,0 h -12 v -12 h 12 v 12 m 16.249994,38.10001 v 12 H 99.048005 v -12 H 111.048 m -32.499994,28.699999 h -12 v -11.999998 h 12 v 11.999998 m 4.25,-11.999998 h 12 v 11.999998 h -12 V -96.463309 M 111.048,-79.763311 v 12 H 99.048005 v -12 H 111.048 m 0,-4.7 H 99.048005 V -96.463309 H 111.048 v 11.999998 m -16.249994,4.7 v 12 h -12 v -12 h 12 m 0,-33.399999 v 12 h -12 v -12 h 12 m 32.499994,0 v 12 h -12 v -12 h 12 m 4.25,16.700001 h 12 v 11.999998 h -12 v -11.999998 m -16.25,11.999998 v -11.999998 h 12 v 11.999998 h -12 m 12,4.7 v 12 h -12 v -12 h 12 m 20.49999,-16.699998 h 12 v 11.999998 h -12 v -11.999998 m -4.24999,16.699998 v 12 h -12 v -12 h 12 m 4.24999,-33.399999 h 12 v 12 h -12 v -12 m -4.24999,0 v 12 h -12 v -12 h 12 m -64.999994,-4.7 h -12 v -12 h 12 v 12 m 69.249984,-12 h 12 v 12 h -12 v -12 m 60.75,-33.40001 v 12 h -12 v -12 h 12 m 4.25,16.70001 h 12 v 12 h -12 v -12 m -16.25,12 v -12 h 12 v 12 h -12 m 12,4.7 v 12 h -12 v -12 h 12 m 20.5,-16.7 h 12 v 12 h -12 v -12 m -4.25,16.7 v 12 h -12 v -12 h 12 m 4.25,-33.40001 h 12 v 12 h -12 v -12 m -4.25,12 h -12 v -12 h 12 v 12 m -32.5,-12 v 12 h -12 v -12 h 12 m -28.25,16.70001 h 12 v 12 h -12 v -12 m 28.25,16.7 v 12 h -12 v -12 h 12 m 0,-4.7 h -12 v -12 h 12 v 12 m -16.25,4.7 v 12 h -12 v -12 h 12 m 0,-21.40001 h -12 v -12 h 12 v 12 m 16.25,38.10001 v 12 h -12 v -12 h 12 m -28.25,16.700001 h 12 v 11.999998 h -12 v -11.999998 m 28.25,16.699998 v 12 h -12 v -12 h 12 m -12,-4.7 v -11.999998 h 12 v 11.999998 h -12 m -4.25,4.7 v 12 h -12 v -12 h 12 m 0,-33.399999 v 12 h -12 v -12 h 12 m 32.5,0 v 12 h -12 v -12 h 12 m 0,33.399999 v 12 h -12 v -12 h 12 m -12,-16.699998 h 12 v 11.999998 h -12 v -11.999998 m 16.25,0 h 12 v 11.999998 h -12 v -11.999998 m 16.25,0 h 12 v 11.999998 h -12 v -11.999998 m -4.25,16.699998 v 12 h -12 v -12 h 12 m 4.25,-33.399999 h 12 v 12 h -12 v -12 m -16.25,0 h 12 v 12 h -12 v -12 m 16.25,-16.7 h 12 v 12 h -12 v -12 m 0,-50.10001 h 12 v 12 h -12 v -12 m -150.499984,12 h -12 v -12 h 12 v 12 m 69.249984,-12 h 12 v 12 h -12 v -12 m 12,100.200009 v 12 h -12 v -12 h 12 m 211.25,-183.700009 v 12 h -12 v -12 h 12 m -12,28.7 v -12 h 12 v 12 h -12 m 12,4.7 v 12 h -12 v -12 h 12 m -16.25,-33.4 v 12 h -12 v -12 h 12 m -28.25,16.7 h 12 v 12 h -12 v -12 m -4.25,12 h -12 v -12 h 12 v 12 m 32.5,4.7 v 12 h -12 v -12 h 12 m -12,-16.7 h 12 v 12 h -12 v -12 m -20.5,-4.7 h -12 v -12 h 12 v 12 m 16.25,-12 v 12 h -12 v -12 h 12 m 0,33.4 v 12 h -12 v -12 h 12 m 16.25,16.7 v 12 h -12 v -12 h 12 m -32.5,28.7 h -12 v -12 h 12 v 12 m 4.25,-12 h 12 v 12 h -12 v -12 m 16.25,12 v -12 h 12 v 12 h -12 m 12,4.7 v 12 h -12 v -12 h 12 m -32.5,-21.4 h -12 v -12 h 12 v 12 m 16.25,21.4 v 12 h -12 v -12 h 12 m -12,-21.4 v -12 h 12 v 12 h -12 m 44.5,-12 v 12 h -12 v -12 h 12 m -12,28.7 v -12 h 12 v 12 h -12 m 12,4.7 v 12 h -12 v -12 h 12 m -48.75,-38.1 h -12 v -12 h 12 v 12 m -32.5,-45.4 v 12 h -12 v -12 h 12 m -12,16.7 h 12 v 12 h -12 v -12 m 16.25,0 h 12 v 12 h -12 v -12 m -4.25,16.7 v 12 h -12 v -12 h 12 m 16.25,0 v 12 h -12 v -12 h 12 m -12,-33.4 h 12 v 12 h -12 v -12 m -20.5,0 v 12 h -12 v -12 h 12 m -28.25,16.7 h 12 v 12 h -12 v -12 m 16.25,0 h 12 v 12 h -12 v -12 m 12,16.7 v 12 h -12 v -12 h 12 m -28.25,-21.4 v -12 h 12 v 12 h -12 m 12,21.4 v 12 h -12 v -12 h 12 m 16.25,16.7 v 12 h -12 v -12 h 12 m -28.25,16.7 h 12 v 12 h -12 v -12 m 16.25,12 v -12 h 12 v 12 h -12 m 12,4.7 v 12 h -12 v -12 h 12 m -16.25,0 v 12 h -12 v -12 h 12 m -12,-21.4 v -12 h 12 v 12 h -12 m 44.5,-12 v 12 h -12 v -12 h 12 m 0,33.4 v 12 h -12 v -12 h 12 m 0,-4.7 h -12 v -12 h 12 v 12 m 4.25,-12 h 12 v 12 h -12 v -12 m 12,16.7 v 12 h -12 v -12 h 12 m 0,-21.4 h -12 v -12 h 12 v 12 m -16.25,38.1 v 12 h -12 v -12 h 12 m 0,33.40001 v 12 h -12 v -12 h 12 m 0,-4.7 h -12 v -12 h 12 v 12 m 4.25,-12 h 12 v 12 h -12 v -12 m 16.25,0 h 12 v 12 h -12 v -12 m -4.25,16.7 v 12 h -12 v -12 h 12 m 4.25,-33.40001 h 12 v 12 h -12 v -12 m -4.25,12 h -12 v -12 h 12 v 12 m -32.5,-12 v 12 h -12 v -12 h 12 m -28.25,16.70001 h 12 v 12 h -12 v -12 m 28.25,16.7 v 12 h -12 v -12 h 12 m 0,-4.7 h -12 v -12 h 12 v 12 m -16.25,4.7 v 12 h -12 v -12 h 12 m 0,-33.40001 v 12 h -12 v -12 h 12 m 16.25,50.10001 v 12 h -12 v -12 h 12 m -28.25,16.700001 h 12 v 11.999998 h -12 v -11.999998 m 28.25,16.699998 v 12 h -12 v -12 h 12 m -12,-4.7 v -11.999998 h 12 v 11.999998 h -12 m -4.25,4.7 v 12 h -12 v -12 h 12 m 0,-33.399999 v 12 h -12 v -12 h 12 m 32.5,0 v 12 h -12 v -12 h 12 m 4.25,16.700001 h 12 v 11.999998 h -12 v -11.999998 m -4.25,16.699998 v 12 h -12 v -12 h 12 m -12,-4.7 v -11.999998 h 12 v 11.999998 h -12 m 32.5,-11.999998 h 12 v 11.999998 h -12 v -11.999998 m -4.25,16.699998 v 12 h -12 v -12 h 12 m 4.25,-33.399999 h 12 v 12 h -12 v -12 m -16.25,0 h 12 v 12 h -12 v -12 m 16.25,-16.7 h 12 v 12 h -12 v -12 m 60.75,-33.40001 v 12 h -12 v -12 h 12 m -12,28.70001 v -12 h 12 v 12 h -12 m 12,4.7 v 12 h -12 v -12 h 12 m -16.25,-33.40001 v 12 h -12 v -12 h 12 m -28.25,16.70001 h 12 v 12 h -12 v -12 m 28.25,16.7 v 12 h -12 v -12 h 12 m 0,-4.7 h -12 v -12 h 12 v 12 m -16.25,4.7 v 12 h -12 v -12 h 12 m 0,-21.40001 h -12 v -12 h 12 v 12 m 16.25,38.10001 v 12 h -12 v -12 h 12 m -28.25,16.700001 h 12 v 11.999998 h -12 v -11.999998 m 28.25,16.699998 v 12 h -12 v -12 h 12 m -12,-4.7 v -11.999998 h 12 v 11.999998 h -12 m -4.25,4.7 v 12 h -12 v -12 h 12 m 0,-33.399999 v 12 h -12 v -12 h 12 m 32.5,0 v 12 h -12 v -12 h 12 m 0,28.699999 h -12 v -11.999998 h 12 v 11.999998 m 0,4.7 v 12 h -12 v -12 h 12 m -60.75,-100.200009 h 12 v 12 h -12 v -12 m 12,100.200009 v 12 h -12 v -12 h 12 M 78.548006,-268.16332 h -12 v -12 h 12 v 12 m 150.499984,-12 h 12 v 12 h -12 v -12 m 12,200.400009 v 12 h -12 v -12 h 12 m 130,16.7 v 12 h -12 v -12 h 12 m 0,33.4 v 12 h -12 v -12 h 12 m -12,-4.7 v -12 h 12 v 12 h -12 m -4.25,-28.7 v 12 h -12 v -12 h 12 m -32.5,28.7 h -12 v -12 h 12 v 12 m 4.25,-12 h 12 v 12 h -12 v -12 m 16.25,0 h 12 v 12 h -12 v -12 m 12,16.7 v 12 h -12 v -12 h 12 m -32.5,-21.4 h -12 v -12 h 12 v 12 m 4.25,0 v -12 h 12 v 12 h -12 m 12,21.4 v 12 h -12 v -12 h 12 m 16.25,16.7 v 11.99999991 h -12 V -12.963311 h 12 m -32.5,28.7 h -12 V 3.7366889 h 12 V 15.736689 m 4.25,-12.0000001 h 12 V 15.736689 h -12 V 3.7366889 m 16.25,0 h 12 V 15.736689 h -12 V 3.7366889 m -20.5,-4.69999999 h -12 V -12.963311 h 12 v 11.99999991 m 16.25,-11.99999991 v 11.99999991 h -12 V -12.963311 h 12 m 32.5,0 v 11.99999991 h -12 V -12.963311 h 12 m -12,16.6999999 h 12 V 15.736689 h -12 V 3.7366889 m -36.75,-21.3999999 h -12 v -12 h 12 v 12 m -32.5,-45.4 v 12 h -12 v -12 h 12 m -12,16.7 h 12 v 12 h -12 v -12 m 16.25,0 h 12 v 12 h -12 v -12 m -4.25,16.7 v 12 h -12 v -12 h 12 m 16.25,0 v 12 h -12 v -12 h 12 m -12,-33.4 h 12 v 12 h -12 v -12 m -20.5,0 v 12 h -12 v -12 h 12 m -32.5,28.7 h -12 v -12 h 12 v 12 m 4.25,-12 h 12 v 12 h -12 v -12 m 16.25,0 h 12 v 12 h -12 v -12 m 12,16.7 v 12 h -12 v -12 h 12 m -32.5,-21.4 h -12 v -12 h 12 v 12 m 4.25,0 v -12 h 12 v 12 h -12 m 12,21.4 v 12 h -12 v -12 h 12 m 16.25,16.7 v 11.99999991 h -12 V -12.963311 h 12 m -32.5,28.7 h -12 V 3.7366889 h 12 V 15.736689 m 4.25,-12.0000001 h 12 V 15.736689 h -12 V 3.7366889 m 16.25,0 h 12 V 15.736689 h -12 V 3.7366889 m -20.5,-4.69999999 h -12 V -12.963311 h 12 v 11.99999991 m 4.25,-11.99999991 h 12 v 11.99999991 h -12 V -12.963311 m 44.5,0 v 11.99999991 h -12 V -12.963311 h 12 m -12,16.6999999 h 12 V 15.736689 h -12 V 3.7366889 m 16.25,0 h 12 V 15.736689 h -12 V 3.7366889 m 12,-4.69999999 h -12 V -12.963311 h 12 v 11.99999991 m -65,-16.69999991 h -12 v -12 h 12 v 12 m 65,50.1 h -12 v -12 h 12 v 12 m 4.25,-12 h 12 v 12 h -12 v -12 m -32.5,0 h 12 v 12 h -12 v -12 m 12,16.7 v 12 h -12 v -12 h 12 m 0,16.69999 v 12 h -12 v -12 h 12 m 4.25,0 h 12 v 12 h -12 v -12 m 16.25,0 h 12 v 12 h -12 v -12 m 0,-16.69999 h 12 v 12 h -12 v -12 m -4.25,12 h -12 v -12 h 12 v 12 m -48.75,-16.7 h -12 v -12 h 12 v 12 m 4.25,-12 h 12 v 12 h -12 v -12 m 12,16.7 v 12 h -12 v -12 h 12 m -32.5,-4.7 h -12 v -12 h 12 v 12 m 0,33.39999 h -12 v -12 h 12 v 12 m 4.25,-12 h 12 v 12 h -12 v -12 m 28.25,0 v 12 h -12 v -12 h 12 m -32.5,-4.69999 h -12 v -12 h 12 v 12 m 16.25,0 h -12 v -12 h 12 v 12 m 4.25,33.39999 v -12 h 12 v 12 h -12 m -4.25,0 h -12 v -12 h 12 v 12 m 16.25,4.7 v 12.00001 h -12 v -12.00001 h 12 m -32.5,-4.7 h -12 v -12 h 12 v 12 m 4.25,21.400011 h 12 v 12 h -12 v -12 m -4.25,12 h -12 v -12 h 12 v 12 m 32.5,0 h -12 v -12 h 12 v 12 m -32.5,-16.700001 h -12 v -12.00001 h 12 v 12.00001 m 4.25,0 v -12.00001 h 12 v 12.00001 h -12 m 65,-28.70001 h 12 v 12 h -12 v -12 m -4.25,12 h -12 v -12 h 12 v 12 m -28.25,0 v -12 h 12 v 12 h -12 m 12,4.7 v 12.00001 h -12 v -12.00001 h 12 m 4.25,16.700011 h 12 v 12 h -12 v -12 m -4.25,12 h -12 v -12 h 12 v 12 m 20.5,-12 h 12 v 12 h -12 v -12 m 0,-16.700011 h 12 v 12.00001 h -12 v -12.00001 m -16.25,12.00001 v -12.00001 h 12 v 12.00001 h -12 m 77,-62.1 v 12 h -12 v -12 h 12 m -12,-16.7 h 12 v 12 h -12 v -12 m 0,33.39999 h 12 v 12 h -12 v -12 m -4.25,-16.69999 v 12 h -12 v -12 h 12 m -16.25,-4.7 h -12 v -12 h 12 v 12 m 16.25,-12 v 12 h -12 v -12 h 12 m -28.25,33.39999 h 12 v 12 h -12 v -12 m 28.25,12 h -12 v -12 h 12 v 12 m -28.25,-28.69999 h 12 v 12 h -12 v -12 m 12,45.39999 h -12 v -12 h 12 v 12 m 16.25,4.7 v 12.00001 h -12 v -12.00001 h 12 m 0,-4.7 h -12 v -12 h 12 v 12 m -28.25,21.400011 h 12 v 12 h -12 v -12 m 28.25,12 h -12 v -12 h 12 v 12 m -28.25,-28.700011 h 12 v 12.00001 h -12 v -12.00001 m 44.5,0 v 12.00001 h -12 v -12.00001 h 12 m -12,-16.7 h 12 v 12 h -12 v -12 m 0,45.400011 v -12 h 12 v 12 h -12 m -150.5,-179.000001 v 12 h -12 v -12 h 12 m -12,16.7 h 12 v 12 h -12 v -12 m 16.25,0 h 12 v 12 h -12 v -12 m -4.25,16.7 v 12 h -12 v -12 h 12 m 4.25,-21.4 v -12 h 12 v 12 h -12 m 12,21.4 v 12 h -12 v -12 h 12 m -32.5,-33.4 v 12 h -12 v -12 h 12 m -28.25,16.7 h 12 v 12 h -12 v -12 m -4.25,12 h -12 v -12 h 12 v 12 m 20.5,-12 h 12 v 12 h -12 v -12 m 12,16.7 v 12 h -12 v -12 h 12 m -32.5,-21.4 h -12 v -12 h 12 v 12 m 4.25,0 v -12 h 12 v 12 h -12 m 12,21.4 v 12 h -12 v -12 h 12 m 16.25,16.7 v 11.99999991 h -12 V -12.963311 h 12 m -32.5,28.7 h -12 V 3.7366889 h 12 V 15.736689 m 4.25,-12.0000001 h 12 V 15.736689 h -12 V 3.7366889 m 16.25,0 h 12 V 15.736689 h -12 V 3.7366889 m -20.5,-4.69999999 h -12 V -12.963311 h 12 v 11.99999991 m 4.25,-11.99999991 h 12 v 11.99999991 h -12 V -12.963311 m 44.5,0 v 11.99999991 h -12 V -12.963311 h 12 m 4.25,16.6999999 h 12 V 15.736689 h -12 V 3.7366889 m -4.25,12.0000001 h -12 V 3.7366889 h 12 V 15.736689 m 16.25,-16.70000009 h -12 V -12.963311 h 12 v 11.99999991 m -65,-16.69999991 h -12 v -12 h 12 v 12 m -32.49999,-45.4 v 12 h -12 v -12 h 12 m -12,16.7 h 12 v 12 h -12 v -12 m 16.25,0 h 12 v 12 h -12 v -12 m -4.25,16.7 v 12 h -12 v -12 h 12 m 16.25,0 v 12 h -12 v -12 h 12 m -12,-33.4 h 12 v 12 h -12 v -12 m -20.5,0 v 12 H 99.048005 v -12 H 111.048 m -28.249994,16.7 h 12 v 12 h -12 v -12 m -4.25,12 h -12 v -12 h 12 v 12 m 32.499994,4.7 v 12 H 99.048005 v -12 H 111.048 m -11.999995,-4.7 v -12 H 111.048 v 12 H 99.048005 m -4.249999,4.7 v 12 h -12 v -12 h 12 m -16.25,-21.4 h -12 v -12 h 12 v 12 m 4.25,-12 h 12 v 12 h -12 v -12 m 28.249994,50.1 V -0.96331109 H 99.048005 V -12.963311 H 111.048 M 82.798006,3.7366889 h 12 V 15.736689 h -12 V 3.7366889 m -4.25,12.0000001 h -12 V 3.7366889 h 12 V 15.736689 M 99.048005,3.7366889 H 111.048 V 15.736689 H 99.048005 V 3.7366889 M 78.548006,-0.96331109 h -12 V -12.963311 h 12 v 11.99999991 m 16.25,-11.99999991 v 11.99999991 h -12 V -12.963311 h 12 m 32.499994,0 v 11.99999991 h -12 V -12.963311 h 12 m -12,16.6999999 h 12 V 15.736689 h -12 V 3.7366889 m 16.25,0 h 12 V 15.736689 h -12 V 3.7366889 m 0,-4.69999999 V -12.963311 h 12 v 11.99999991 h -12 M 78.548006,-17.663311 h -12 v -12 h 12 v 12 m 64.999994,50.1 h -12 v -12 h 12 v 12 m 4.24999,-12 h 12 v 12 h -12 v -12 m -32.49999,0 h 12 v 12 h -12 v -12 m 12,16.7 v 12 h -12 v -12 h 12 m 0,16.69999 v 12 h -12 v -12 h 12 m 4.25,0 h 12 v 12 h -12 v -12 m 16.24999,0 h 12 v 12 h -12 v -12 m 0,-16.69999 h 12 v 12 h -12 v -12 m -16.24999,12 v -12 h 12 v 12 h -12 m -36.749994,-16.7 h -12 v -12 h 12 v 12 m 4.249999,-12 H 111.048 v 12 H 99.048005 v -12 m 11.999995,16.7 v 12 H 99.048005 v -12 H 111.048 m -32.499994,-4.7 h -12 v -12 h 12 v 12 m 0,33.39999 h -12 v -12 h 12 v 12 m 4.25,-12 h 12 v 12 h -12 v -12 m 28.249994,12 H 99.048005 v -12 H 111.048 v 12 M 78.548006,49.136689 h -12 v -12 h 12 v 12 m 4.25,0 v -12 h 12 v 12 h -12 M 111.048,87.236679 v 12.00001 H 99.048005 V 87.236679 H 111.048 m -16.249994,-4.7 h -12 v -12 h 12 v 12 m 4.249999,-12 H 111.048 v 12 H 99.048005 v -12 m -20.499999,12 h -12 v -12 h 12 v 12 m 0,33.400011 h -12 v -12 h 12 v 12 m 4.25,-12 h 12 v 12 h -12 v -12 m 28.249994,12 H 99.048005 v -12 H 111.048 v 12 M 78.548006,99.236689 h -12 v -12.00001 h 12 v 12.00001 m 4.25,0 v -12.00001 h 12 v 12.00001 h -12 m 64.999984,-28.70001 h 12 v 12 h -12 v -12 m -4.24999,12 h -12 v -12 h 12 v 12 m -16.25,4.7 v 12.00001 h -12 v -12.00001 h 12 m -12,-16.7 h 12 v 12 h -12 v -12 m 16.25,33.400011 h 12 v 12 h -12 v -12 m -4.25,12 h -12 v -12 h 12 v 12 m 20.49999,-12 h 12 v 12 h -12 v -12 m 0,-16.700011 h 12 v 12.00001 h -12 V 87.236679 M 131.548,99.236689 v -12.00001 h 12 v 12.00001 h -12 m 93.24999,-66.8 h -12 v -12 h 12 v 12 m -16.25,4.7 v 12 h -12 v -12 h 12 m -12,-4.7 v -12 h 12 v 12 h -12 m 12,21.39999 v 12 h -12 v -12 h 12 m 4.25,0 h 12 v 12 h -12 v -12 m 0,-4.69999 v -12 h 12 v 12 h -12 m -36.75,-16.7 h -12 v -12 h 12 v 12 m 4.25,-12 h 12 v 12 h -12 v -12 m 12,16.7 v 12 h -12 v -12 h 12 m -28.25,16.69999 h 12 v 12 h -12 v -12 m 28.25,0 v 12 h -12 v -12 h 12 m -16.25,-4.69999 h -12 v -12 h 12 v 12 m 4.25,33.39999 v -12 h 12 v 12 h -12 m -4.25,0 h -12 v -12 h 12 v 12 m 16.25,4.7 v 12.00001 h -12 v -12.00001 h 12 m -28.25,16.700011 h 12 v 12 h -12 v -12 m 16.25,12 v -12 h 12 v 12 h -12 m -4.25,-16.700001 h -12 v -12.00001 h 12 v 12.00001 m 48.75,-16.70001 h -12 v -12 h 12 v 12 m -28.25,0 v -12 h 12 v 12 h -12 m 12,4.7 v 12.00001 h -12 v -12.00001 h 12 m 4.25,16.700011 h 12 v 12 h -12 v -12 m -4.25,12 h -12 v -12 h 12 v 12 m 16.25,-16.700001 h -12 v -12.00001 h 12 v 12.00001 m -146.249984,-167 h -12 v -12 h 12 v 12 M -51.451996,-313.56332 v 12 h -12 v -12 h 12 m -32.499999,28.7 h -12.000002 v -12 h 12.000002 v 12 m 4.250003,-12 h 11.999996 v 12 h -11.999996 v -12 m 16.249996,0 h 12 v 12 h -12 v -12 m 12,16.7 v 12 h -12 v -12 h 12 m -32.499999,-21.4 h -12.000002 v -12 h 12.000002 v 12 m 4.250003,0 v -12 h 11.999996 v 12 h -11.999996 m 11.999996,21.4 v 12 h -11.999996 v -12 h 11.999996 m 32.5,-33.4 v 12 h -12 v -12 h 12 m -12,16.7 h 12 v 12 h -12 v -12 m 12,16.7 v 12 h -12 v -12 h 12 m 4.25,-16.7 h 12.000002 v 12 h -12.000002 v -12 m 16.250002,0 h 11.9999996 v 12 H -14.701994 v -12 m 0,-16.7 h 11.9999996 v 12 H -14.701994 v -12 m -16.250002,12 v -12 h 12.000002 v 12 h -12.000002 m 12.000002,21.4 v 12 h -12.000002 v -12 h 12.000002 m 48.75,-33.4 v 12 h -12 v -12 h 12 m -28.2499993,16.7 H 13.548006 v 12 H 1.5480067 v -12 m 16.2499993,0 h 12 v 12 h -12 v -12 m 12,16.7 v 12 h -12 v -12 h 12 m -28.2499993,-21.4 v -12 H 13.548006 v 12 H 1.5480067 m 11.9999993,21.4 v 12 H 1.5480067 v -12 H 13.548006 m 32.5,-33.4 v 12 h -12 v -12 h 12 m 0,33.4 v 12 h -12 v -12 h 12 m 4.25,-16.7 h 12 v 12 h -12 v -12 m -16.25,12 v -12 h 12 v 12 h -12 m 28.25,4.7 v 12 h -12 v -12 h 12 m 0,-33.4 v 12 h -12 v -12 h 12 m -65.0000004,33.4 v 12 H -14.701994 v -12 h 11.9999996 m -195.0000156,-33.4 v 12 h -12 v -12 h 12 m 4.25,16.7 h 12 v 12 h -12 v -12 m -4.25,16.7 v 12 h -12 v -12 h 12 m -12,-4.7 v -12 h 12 v 12 h -12 m 32.5,-12 h 12 v 12 h -12 v -12 m -4.25,16.7 v 12 h -12 v -12 h 12 m 4.25,-33.4 h 12 v 12 h -12 v -12 m -16.25,0 h 12 v 12 h -12 v -12 m 60.75,0 v 12 h -12 v -12 h 12 m -28.25,16.7 h 12 v 12 h -12 v -12 m 28.25,16.7 v 12 h -12 v -12 h 12 m -12,-4.7 v -12 h 12 v 12 h -12 m -4.25,4.7 v 12 h -12 v -12 h 12 m 0,-21.4 h -12 v -12 h 12 v 12 m 32.5,-12 v 12 h -12 v -12 h 12 m 4.25,16.7 h 12.00001 v 12 h -12.00001 v -12 m -16.25,0 h 12 v 12 h -12 v -12 m 12,16.7 v 12 h -12 v -12 h 12 m 4.25,-21.4 v -12 h 12.00001 v 12 h -12.00001 m 12.00001,21.4 v 12 h -12.00001 v -12 h 12.00001 m -65.00001,0 v 12 h -12 v -12 h 12 m 48.75,16.7 v 12 h -12 v -12 h 12 m 4.25,16.7 h 12.00001 v 12 h -12.00001 v -12 m -16.25,0 h 12 v 12 h -12 v -12 m 12,16.7 v 12 h -12 v -12 h 12 m 20.500013,-16.7 h 12.000002 v 12 h -12.000002 v -12 m 0,-16.7 h 12.000002 v 12 h -12.000002 v -12 m -16.250013,12 v -12 h 12.00001 v 12 h -12.00001 m 12.00001,21.4 v 12 h -12.00001 v -12 h 12.00001 m -32.50001,-33.4 v 12 h -12 v -12 h 12 m -32.5,28.7 h -12 v -12 h 12 v 12 m 4.25,-12 h 12 v 12 h -12 v -12 m 16.25,0 h 12 v 12 h -12 v -12 m 12,16.7 v 12 h -12 v -12 h 12 m -32.5,-21.4 h -12 v -12 h 12 v 12 m 4.25,0 v -12 h 12 v 12 h -12 m 12,21.4 v 12 h -12 v -12 h 12 m 16.25,16.7 v 12 h -12 v -12 h 12 m -28.25,16.7 h 12 v 12 h -12 v -12 m -4.25,12 h -12 v -12 h 12 v 12 m 20.5,0 v -12 h 12 v 12 h -12 m 12,4.7 v 12 h -12 v -12 h 12 m -32.5,-21.4 h -12 v -12 h 12 v 12 m 16.25,21.4 v 12 h -12 v -12 h 12 m -12,-21.4 v -12 h 12 v 12 h -12 m 44.5,-12 v 12 h -12 v -12 h 12 m 4.25,16.7 h 12.00001 v 12 h -12.00001 v -12 m -16.25,12 v -12 h 12 v 12 h -12 m 12,4.7 v 12 h -12 v -12 h 12 m 20.500013,-16.7 h 12.000002 v 12 h -12.000002 v -12 m -4.250003,16.7 v 12 h -12.00001 v -12 h 12.00001 m 4.250003,-33.4 h 12.000002 v 12 h -12.000002 v -12 m -16.250013,0 h 12.00001 v 12 h -12.00001 v -12 m 16.250013,-16.7 h 12.000002 v 12 h -12.000002 v -12 m -69.250013,12 h -12 v -12 h 12 v 12 m -32.5,-45.4 v 12 h -12 v -12 h 12 m -12,16.7 h 12 v 12 h -12 v -12 m 16.25,0 h 12 v 12 h -12 v -12 m -4.25,16.7 v 12 h -12 v -12 h 12 m 16.25,0 v 12 h -12 v -12 h 12 m -12,-33.4 h 12 v 12 h -12 v -12 m -4.25,50.1 v 12 h -12 v -12 h 12 m -12,16.7 h 12 v 12 h -12 v -12 m 16.25,0 h 12 v 12 h -12 v -12 m -4.25,16.7 v 12 h -12 v -12 h 12 m 16.25,0 v 12 h -12 v -12 h 12 m -12,-21.4 v -12 h 12 v 12 h -12 m -4.25,38.1 v 12 h -12 v -12 h 12 m 4.25,16.70001 h 12 v 12 h -12 v -12 m -4.25,16.7 v 12 h -12 v -12 h 12 m 0,-4.7 h -12 v -12 h 12 v 12 m 20.5,-12 h 12 v 12 h -12 v -12 m 0,-16.70001 h 12 v 12 h -12 v -12 m -4.25,33.40001 v 12 h -12 v -12 h 12 m -12,-21.40001 v -12 h 12 v 12 h -12 m -4.25,38.10001 v 12 h -12 v -12 h 12 m 0,33.399999 v 12 h -12 v -12 h 12 m 4.25,-16.699998 h 12 v 11.999998 h -12 v -11.999998 m -16.25,0 h 12 v 11.999998 h -12 v -11.999998 m 32.5,0 h 12 v 11.999998 h -12 v -11.999998 m 0,-16.700001 h 12 v 12 h -12 v -12 m -4.25,33.399999 v 12 h -12 v -12 h 12 m -12,-21.399999 v -12 h 12 v 12 h -12 m 16.25,-28.7 h 12 v 12 h -12 v -12 m 60.75,-33.40001 v 12 h -12 v -12 h 12 m -12,28.70001 v -12 h 12 v 12 h -12 m 12,4.7 v 12 h -12 v -12 h 12 m 4.25,-16.7 h 12.00001 v 12 h -12.00001 v -12 m 16.250013,0 h 12.000002 v 12 h -12.000002 v -12 m 0,-16.70001 h 12.000002 v 12 h -12.000002 v -12 m -4.250003,33.40001 v 12 h -12.00001 v -12 h 12.00001 m -12.00001,-21.40001 v -12 h 12.00001 v 12 h -12.00001 m -20.5,-12 v 12 h -12 v -12 h 12 m -28.25,16.70001 h 12 v 12 h -12 v -12 m 16.25,12 v -12 h 12 v 12 h -12 m 12,4.7 v 12 h -12 v -12 h 12 m -16.25,0 v 12 h -12 v -12 h 12 m -12,-21.40001 v -12 h 12 v 12 h -12 m 28.25,38.10001 v 12 h -12 v -12 h 12 m -28.25,16.700001 h 12 v 11.999998 h -12 v -11.999998 m 28.25,16.699998 v 12 h -12 v -12 h 12 m -12,-16.699998 h 12 v 11.999998 h -12 v -11.999998 m -4.25,16.699998 v 12 h -12 v -12 h 12 m -12,-21.399999 v -12 h 12 v 12 h -12 m 44.5,-12 v 12 h -12 v -12 h 12 m -12,28.699999 v -11.999998 h 12 v 11.999998 h -12 m 16.25,-11.999998 h 12.00001 v 11.999998 h -12.00001 v -11.999998 m -4.25,16.699998 v 12 h -12 v -12 h 12 m 20.500013,-16.699998 h 12.000002 v 11.999998 h -12.000002 v -11.999998 m -4.250003,16.699998 v 12 h -12.00001 v -12 h 12.00001 m 4.250003,-33.399999 h 12.000002 v 12 h -12.000002 v -12 m -4.250003,12 h -12.00001 v -12 h 12.00001 v 12 m 4.250003,-28.7 h 12.000002 v 12 h -12.000002 v -12 m 0,-50.10001 h 12.000002 v 12 h -12.000002 v -12 m -81.250013,0 h 12 v 12 h -12 v -12 m 12,100.200009 v 12 h -12 v -12 h 12 M 46.048006,-263.46332 v 12 h -12 v -12 h 12 m 0,33.4 v 12 h -12 v -12 h 12 m 4.25,-16.7 h 12 v 12 h -12 v -12 m -16.25,12 v -12 h 12 v 12 h -12 m 28.25,4.7 v 12 h -12 v -12 h 12 m 0,-33.4 v 12 h -12 v -12 h 12 m -32.5,0 v 12 h -12 v -12 h 12 m -28.2499993,16.7 H 13.548006 v 12 H 1.5480067 v -12 m -4.2500011,12 H -14.701994 v -12 h 11.9999996 v 12 m 32.5000004,4.7 v 12 h -12 v -12 h 12 m -12,-4.7 v -12 h 12 v 12 h -12 m -4.25,4.7 v 12 H 1.5480067 v -12 H 13.548006 m -16.2500004,-21.4 H -14.701994 v -12 h 11.9999996 v 12 m 16.2500004,-12 v 12 H 1.5480067 v -12 H 13.548006 m 16.25,50.1 v 12 h -12 v -12 h 12 m -32.5000004,28.7 H -14.701994 v -12 h 11.9999996 v 12 m 4.2500011,-12 H 13.548006 v 12 H 1.5480067 v -12 m 28.2499993,16.7 v 12 h -12 v -12 h 12 m 0,-16.7 v 12 h -12 v -12 h 12 m -16.25,16.7 v 12 H 1.5480067 v -12 H 13.548006 m -16.2500004,-21.4 H -14.701994 v -12 h 11.9999996 v 12 m 16.2500004,0 H 1.5480067 v -12 H 13.548006 v 12 m 32.5,-12 v 12 h -12 v -12 h 12 m 0,33.4 v 12 h -12 v -12 h 12 m 0,-4.7 h -12 v -12 h 12 v 12 m 4.25,-12 h 12 v 12 h -12 v -12 m 12,16.7 v 12 h -12 v -12 h 12 m 0,-21.4 h -12 v -12 h 12 v 12 m -65.0000004,-16.7 H -14.701994 v -12 h 11.9999996 v 12 m -32.5000016,-45.4 v 12 h -12 v -12 h 12 m -12,16.7 h 12 v 12 h -12 v -12 m 16.25,0 h 12.000002 v 12 h -12.000002 v -12 m -4.25,16.7 v 12 h -12 v -12 h 12 m 16.250002,0 v 12 h -12.000002 v -12 h 12.000002 m -12.000002,-33.4 h 12.000002 v 12 h -12.000002 v -12 m -20.5,0 v 12 h -12 v -12 h 12 m -28.249996,16.7 h 11.999996 v 12 h -11.999996 v -12 m 16.249996,0 h 12 v 12 h -12 v -12 m 12,16.7 v 12 h -12 v -12 h 12 m -16.25,0 v 12 h -11.999996 v -12 h 11.999996 m -11.999996,-33.4 h 11.999996 v 12 h -11.999996 v -12 m 28.249996,50.1 v 12 h -12 v -12 h 12 m -28.249996,16.7 h 11.999996 v 12 h -11.999996 v -12 m 16.249996,12 v -12 h 12 v 12 h -12 m 12,4.7 v 12 h -12 v -12 h 12 m -16.25,0 v 12 h -11.999996 v -12 h 11.999996 m -11.999996,-21.4 v -12 h 11.999996 v 12 h -11.999996 m 44.499996,-12 v 12 h -12 v -12 h 12 m 4.25,16.7 h 12.000002 v 12 h -12.000002 v -12 m -4.25,16.7 v 12 h -12 v -12 h 12 m 0,-16.7 v 12 h -12 v -12 h 12 m 16.250002,16.7 v 12 h -12.000002 v -12 h 12.000002 m -12.000002,-21.4 v -12 h 12.000002 v 12 h -12.000002 m -4.25,38.1 v 12 h -12 v -12 h 12 m 4.25,16.70001 h 12.000002 v 12 h -12.000002 v -12 m -4.25,16.7 v 12 h -12 v -12 h 12 m 0,-4.7 h -12 v -12 h 12 v 12 m 20.500002,-12 h 11.9999996 v 12 H -14.701994 v -12 m 0,-16.70001 h 11.9999996 v 12 H -14.701994 v -12 m -4.25,33.40001 v 12 h -12.000002 v -12 h 12.000002 m -12.000002,-21.40001 v -12 h 12.000002 v 12 h -12.000002 m -20.5,-12 v 12 h -12 v -12 h 12 m -28.249996,16.70001 h 11.999996 v 12 h -11.999996 v -12 m 16.249996,12 v -12 h 12 v 12 h -12 m 12,4.7 v 12 h -12 v -12 h 12 m -16.25,0 v 12 h -11.999996 v -12 h 11.999996 m -11.999996,-21.40001 v -12 h 11.999996 v 12 h -11.999996 m 28.249996,38.10001 v 12 h -12 v -12 h 12 m -28.249996,16.700001 h 11.999996 v 11.999998 h -11.999996 v -11.999998 m 28.249996,16.699998 v 12 h -12 v -12 h 12 m -12,-4.7 v -11.999998 h 12 v 11.999998 h -12 m -4.25,4.7 v 12 h -11.999996 v -12 h 11.999996 m 0,-21.399999 h -11.999996 v -12 h 11.999996 v 12 m 32.5,-12 v 12 h -12 v -12 h 12 m 4.25,16.700001 h 12.000002 v 11.999998 h -12.000002 v -11.999998 m -16.25,11.999998 v -11.999998 h 12 v 11.999998 h -12 m 12,4.7 v 12 h -12 v -12 h 12 m 20.500002,-16.699998 h 11.9999996 v 11.999998 H -14.701994 v -11.999998 m -4.25,16.699998 v 12 h -12.000002 v -12 h 12.000002 m 4.25,-33.399999 h 11.9999996 v 12 H -14.701994 v -12 m -16.250002,0 h 12.000002 v 12 h -12.000002 v -12 m 16.250002,-16.7 h 11.9999996 v 12 H -14.701994 v -12 m 60.75,-33.40001 v 12 h -12 v -12 h 12 m -12,28.70001 v -12 h 12 v 12 h -12 m 12,4.7 v 12 h -12 v -12 h 12 m 4.25,-16.7 h 12 v 12 h -12 v -12 m 12,16.7 v 12 h -12 v -12 h 12 m 0,-33.40001 v 12 h -12 v -12 h 12 m -32.5,0 v 12 h -12 v -12 h 12 M 1.5480067,-146.56331 H 13.548006 v 12 H 1.5480067 v -12 m 28.2499993,16.7 v 12 h -12 v -12 h 12 m 0,-4.7 h -12 v -12 h 12 v 12 m -16.25,4.7 v 12 H 1.5480067 v -12 H 13.548006 m 0,-33.40001 v 12 H 1.5480067 v -12 H 13.548006 m 16.25,50.10001 v 12 h -12 v -12 h 12 M 1.5480067,-96.463309 H 13.548006 v 11.999998 H 1.5480067 v -11.999998 m 16.2499993,0 h 12 v 11.999998 h -12 v -11.999998 m 12,16.699998 v 12 h -12 v -12 h 12 m -16.25,0 v 12 H 1.5480067 v -12 H 13.548006 M 1.5480067,-113.16331 H 13.548006 v 12 H 1.5480067 v -12 m 44.4999993,0 v 12 h -12 v -12 h 12 m 0,33.399999 v 12 h -12 v -12 h 12 m -12,-16.699998 h 12 v 11.999998 h -12 v -11.999998 m 16.25,0 h 12 v 11.999998 h -12 v -11.999998 m 12,16.699998 v 12 h -12 v -12 h 12 m -12,-21.399999 v -12 h 12 v 12 h -12 m -65,-78.80001 h 11.9999996 v 12 H -14.701994 v -12 m 11.9999996,100.200009 v 12 H -14.701994 v -12 H -2.7019944 M -95.951997,-280.16332 h 12.000002 v 12 h -12.000002 v -12 m 12.000002,200.400009 v 12 h -12.000002 v -12 h 12.000002 m 130.000001,16.7 v 12 h -12 v -12 h 12 m 0,33.4 v 12 h -12 v -12 h 12 m 4.25,-16.7 h 12 v 12 h -12 v -12 m -16.25,0 h 12 v 12 h -12 v -12 m 16.25,-4.7 v -12 h 12 v 12 h -12 m 12,21.4 v 12 h -12 v -12 h 12 m -32.5,-33.4 v 12 h -12 v -12 h 12 m -28.2499993,16.7 H 13.548006 v 12 H 1.5480067 v -12 m -4.2500011,12 H -14.701994 v -12 h 11.9999996 v 12 m 20.5000004,-12 h 12 v 12 h -12 v -12 m 12,16.7 v 12 h -12 v -12 h 12 m -32.5000004,-21.4 H -14.701994 v -12 h 11.9999996 v 12 m 4.2500011,0 v -12 H 13.548006 v 12 H 1.5480067 m 11.9999993,21.4 v 12 H 1.5480067 v -12 H 13.548006 m 16.25,16.7 v 11.99999991 h -12 V -12.963311 h 12 m -32.5000004,28.7 H -14.701994 V 3.7366889 H -2.7019944 V 15.736689 M 1.5480067,3.7366889 H 13.548006 V 15.736689 H 1.5480067 V 3.7366889 m 16.2499993,0 h 12 V 15.736689 h -12 V 3.7366889 M -2.7019944,-0.96331109 H -14.701994 V -12.963311 H -2.7019944 V -0.96331109 M 13.548006,-12.963311 V -0.96331109 H 1.5480067 V -12.963311 H 13.548006 m 32.5,0 v 11.99999991 h -12 V -12.963311 h 12 m -12,16.6999999 h 12 V 15.736689 h -12 V 3.7366889 m 16.25,0 h 12 V 15.736689 h -12 V 3.7366889 m 12,-4.69999999 h -12 V -12.963311 h 12 V -0.96331109 M -2.7019944,-17.663311 H -14.701994 v -12 h 11.9999996 v 12 m -32.5000016,-45.4 v 12 h -12 v -12 h 12 m -12,16.7 h 12 v 12 h -12 v -12 m 16.25,0 h 12.000002 v 12 h -12.000002 v -12 m -4.25,16.7 v 12 h -12 v -12 h 12 m 16.250002,0 v 12 h -12.000002 v -12 h 12.000002 m -12.000002,-33.4 h 12.000002 v 12 h -12.000002 v -12 m -20.5,0 v 12 h -12 v -12 h 12 m -32.499999,28.7 h -12.000002 v -12 h 12.000002 v 12 m 4.250003,-12 h 11.999996 v 12 h -11.999996 v -12 m 16.249996,0 h 12 v 12 h -12 v -12 m 12,16.7 v 12 h -12 v -12 h 12 m -32.499999,-21.4 h -12.000002 v -12 h 12.000002 v 12 m 4.250003,0 v -12 h 11.999996 v 12 h -11.999996 m 11.999996,21.4 v 12 h -11.999996 v -12 h 11.999996 m 16.25,16.7 v 11.99999991 h -12 V -12.963311 h 12 m -32.499999,28.7 H -95.951997 V 3.7366889 h 12.000002 V 15.736689 m 4.250003,-12.0000001 h 11.999996 V 15.736689 H -79.701992 V 3.7366889 M -63.451996,15.736689 V 3.7366889 h 12 V 15.736689 h -12 m -16.249996,-28.7 h 11.999996 V -0.96331109 H -79.701992 V -12.963311 m -4.250003,11.99999991 H -95.951997 V -12.963311 h 12.000002 V -0.96331109 M -35.201996,-12.963311 v 11.99999991 h -12 V -12.963311 h 12 m 4.25,16.6999999 h 12.000002 V 15.736689 H -30.951996 V 3.7366889 m -16.25,12.0000001 V 3.7366889 h 12 V 15.736689 h -12 M -18.951994,-0.96331109 H -30.951996 V -12.963311 h 12.000002 V -0.96331109 M -83.951995,-17.663311 h -12.000002 v -12 h 12.000002 v 12 m 69.250001,38.1 h 11.9999996 v 12 H -14.701994 v -12 m -4.25,12 h -12.000002 v -12 h 12.000002 v 12 m -16.250002,4.7 v 12 h -12 v -12 h 12 m -12,-16.7 h 12 v 12 h -12 v -12 m 12,33.39999 v 12 h -12 v -12 h 12 m 4.25,0 h 12.000002 v 12 h -12.000002 v -12 m 16.250002,0 h 11.9999996 v 12 H -14.701994 v -12 m 0,-16.69999 h 11.9999996 v 12 H -14.701994 v -12 m -4.25,0 v 12 h -12.000002 v -12 h 12.000002 m -48.750002,-4.7 h -11.999996 v -12 h 11.999996 v 12 m 4.25,-12 h 12 v 12 h -12 v -12 m 12,16.7 v 12 h -12 v -12 h 12 m -32.499999,-4.7 h -12.000002 v -12 h 12.000002 v 12 m 0,33.39999 h -12.000002 v -12 h 12.000002 v 12 m 4.250003,-12 h 11.999996 v 12 h -11.999996 v -12 m 28.249996,0 v 12 h -12 v -12 h 12 m -32.499999,-4.69999 h -12.000002 v -12 h 12.000002 v 12 m 16.249999,0 h -11.999996 v -12 h 11.999996 v 12 m 4.25,33.39999 v -12 h 12 v 12 h -12 m -4.25,0 h -11.999996 v -12 h 11.999996 v 12 m 16.25,4.7 v 12.00001 h -12 v -12.00001 h 12 m -32.499999,-4.7 h -12.000002 v -12 h 12.000002 v 12 m 4.250003,21.400011 h 11.999996 v 12 h -11.999996 v -12 m -4.250003,12 h -12.000002 v -12 h 12.000002 v 12 m 32.499999,0 h -12 v -12 h 12 v 12 M -83.951995,99.236689 h -12.000002 v -12.00001 h 12.000002 v 12.00001 m 4.250003,0 v -12.00001 h 11.999996 v 12.00001 h -11.999996 m 60.749998,-16.70001 h -12.000002 v -12 h 12.000002 v 12 m 4.25,-12 h 11.9999996 v 12 H -14.701994 v -12 m -32.500002,12 v -12 h 12 v 12 h -12 m 12,4.7 v 12.00001 h -12 v -12.00001 h 12 m 0,16.700011 v 12 h -12 v -12 h 12 m 4.25,0 h 12.000002 v 12 h -12.000002 v -12 m 16.250002,0 h 11.9999996 v 12 H -14.701994 v -12 m 0,-16.700011 h 11.9999996 v 12.00001 H -14.701994 v -12.00001 m -16.250002,12.00001 v -12.00001 h 12.000002 v 12.00001 h -12.000002 m 93.250002,-66.8 h -12 v -12 h 12 v 12 m -28.25,-12 h 12 v 12 h -12 v -12 m 12,16.7 v 12 h -12 v -12 h 12 m 0,16.69999 v 12 h -12 v -12 h 12 m 4.25,0 h 12 v 12 h -12 v -12 m 12,-4.69999 h -12 v -12 h 12 v 12 m -48.75,-16.7 H 1.5480067 v -12 H 13.548006 v 12 m 4.25,-12 h 12 v 12 h -12 v -12 m 12,16.7 v 12 h -12 v -12 h 12 M 1.5480067,53.836679 H 13.548006 v 12 H 1.5480067 v -12 m 28.2499993,0 v 12 h -12 v -12 h 12 m -16.25,-4.69999 H 1.5480067 v -12 H 13.548006 v 12 m 4.25,33.39999 v -12 h 12 v 12 h -12 m -4.25,0 H 1.5480067 v -12 H 13.548006 v 12 m 16.25,4.7 v 12.00001 h -12 v -12.00001 h 12 M 1.5480067,103.93669 H 13.548006 v 12 H 1.5480067 v -12 m 28.2499993,0 v 12 h -12 v -12 h 12 m -16.25,-16.700011 v 12.00001 H 1.5480067 V 87.236679 H 13.548006 m 48.75,-4.7 h -12 v -12 h 12 v 12 m -28.25,0 v -12 h 12 v 12 h -12 m 12,4.7 v 12.00001 h -12 v -12.00001 h 12 m 4.25,16.700011 h 12 v 12 h -12 v -12 m -4.25,0 v 12 h -12 v -12 h 12 m 16.25,-4.700001 h -12 v -12.00001 h 12 v 12.00001 m -178.750016,-162.3 v 12 h -12 v -12 h 12 m 4.25,16.7 h 12.00001 v 12 h -12.00001 v -12 m -4.25,16.7 v 12 h -12 v -12 h 12 m 0,-16.7 v 12 h -12 v -12 h 12 m 4.25,-4.7 v -12 h 12.00001 v 12 h -12.00001 m 12.00001,21.4 v 12 h -12.00001 v -12 h 12.00001 m -32.50001,-33.4 v 12 h -12 v -12 h 12 m -28.25,16.7 h 12 v 12 h -12 v -12 m -4.25,12 h -12 v -12 h 12 v 12 m 20.5,-12 h 12 v 12 h -12 v -12 m 12,16.7 v 12 h -12 v -12 h 12 m -32.5,-21.4 h -12 v -12 h 12 v 12 m 4.25,0 v -12 h 12 v 12 h -12 m 12,21.4 v 12 h -12 v -12 h 12 m 16.25,16.7 v 11.99999991 h -12 V -12.963311 h 12 m -32.5,28.7 h -12 V 3.7366889 h 12 V 15.736689 m 4.25,-12.0000001 h 12 V 15.736689 h -12 V 3.7366889 m 16.25,0 h 12 V 15.736689 h -12 V 3.7366889 m -16.25,-4.69999999 V -12.963311 h 12 v 11.99999991 h -12 m -4.25,0 h -12 V -12.963311 h 12 v 11.99999991 m 48.75,-11.99999991 v 11.99999991 h -12 V -12.963311 h 12 m 4.25,16.6999999 H -100.202 V 15.736689 h -12.00001 V 3.7366889 m -16.25,12.0000001 V 3.7366889 h 12 V 15.736689 h -12 M -100.202,-0.96331109 h -12.00001 V -12.963311 H -100.202 V -0.96331109 M -165.20201,-17.663311 h -12 v -12 h 12 v 12 m -32.5,-45.4 v 12 h -12 v -12 h 12 m -12,16.7 h 12 v 12 h -12 v -12 m 16.25,0 h 12 v 12 h -12 v -12 m -4.25,16.7 v 12 h -12 v -12 h 12 m 16.25,0 v 12 h -12 v -12 h 12 m -12,-33.4 h 12 v 12 h -12 v -12 m -4.25,50.1 v 11.99999991 h -12 V -12.963311 h 12 m -12,16.6999999 h 12 V 15.736689 h -12 V 3.7366889 m 16.25,0 h 12 V 15.736689 h -12 V 3.7366889 m 12,-4.69999999 h -12 V -12.963311 h 12 v 11.99999991 m 0,33.40000009 h -12 v -12 h 12 v 12 m 4.25,-12 h 12 v 12 h -12 v -12 m -20.5,16.7 v 12 h -12 v -12 h 12 m -12,-16.7 h 12 v 12 h -12 v -12 m 12,33.39999 v 12 h -12 v -12 h 12 m 4.25,0 h 12 v 12 h -12 v -12 m 16.25,0 h 12 v 12 h -12 v -12 m 0,-16.69999 h 12 v 12 h -12 v -12 m -16.25,12 v -12 h 12 v 12 h -12 m 16.25,21.39999 h 12 v 12 h -12 v -12 m -4.25,12 h -12 v -12 h 12 v 12 m -16.25,4.7 v 12.00001 h -12 v -12.00001 h 12 m -12,-4.7 v -12 h 12 v 12 h -12 m 16.25,21.400011 h 12 v 12 h -12 v -12 m -4.25,12 h -12 v -12 h 12 v 12 m 20.5,-12 h 12 v 12 h -12 v -12 m 0,-16.700011 h 12 v 12.00001 h -12 v -12.00001 m -16.25,12.00001 v -12.00001 h 12 v 12.00001 h -12 m 93.25001,-66.8 h -12.00001 v -12 h 12.00001 v 12 m -16.25001,4.7 v 12 h -12 v -12 h 12 m 0,-16.7 v 12 h -12 v -12 h 12 m 4.25,33.39999 h 12.00001 v 12 h -12.00001 v -12 m -4.25,0 v 12 h -12 v -12 h 12 m 4.25,-4.69999 v -12 h 12.00001 v 12 h -12.00001 m -36.75,-16.7 h -12 v -12 h 12 v 12 m 4.25,-12 h 12 v 12 h -12 v -12 m 12,16.7 v 12 h -12 v -12 h 12 m -28.25,16.69999 h 12 v 12 h -12 v -12 m 28.25,0 v 12 h -12 v -12 h 12 m -16.25,-4.69999 h -12 v -12 h 12 v 12 m 4.25,33.39999 v -12 h 12 v 12 h -12 m -4.25,0 h -12 v -12 h 12 v 12 m 16.25,4.7 v 12.00001 h -12 v -12.00001 h 12 m -28.25,16.700011 h 12 v 12 h -12 v -12 m 28.25,12 h -12 v -12 h 12 v 12 m -16.25,-16.700001 h -12 v -12.00001 h 12 v 12.00001 m 48.75001,-16.70001 h -12.00001 v -12 h 12.00001 v 12 m -28.25001,0 v -12 h 12 v 12 h -12 m 12,4.7 v 12.00001 h -12 v -12.00001 h 12 m 0,28.700011 h -12 v -12 h 12 v 12 m 4.25,-12 h 12.00001 v 12 h -12.00001 v -12 m 12.00001,-4.700001 h -12.00001 v -12.00001 h 12.00001 v 12.00001"
   id="path44"
   inkscape:connector-curvature="0" />
</g>
</svg>